<svg id="Layer_1" data-name="Layer 1" xmlns="http://www.w3.org/2000/svg" viewBox="0 0 20.02 19.95"><defs><style>.cls-1{fill:green;opacity:0.05;isolation:isolate;}</style></defs><title>published_with_changes_black_24dp-01</title><path class="cls-1" d="M17.66,9.53,10.59,16.6,6.35,12.36,7.76,11l2.83,2.83,5.66-5.66ZM4,12A8,8,0,0,1,6.62,6.12L9,8.5v-6H3L5.2,4.7A10,10,0,0,0,11,22V20A8,8,0,0,1,4,12Zm18,0a10,10,0,0,0-9-9.95v2a8,8,0,0,1,4.38,13.81L15,15.5v6h6l-2.2-2.2A9.93,9.93,0,0,0,22,12Z" transform="translate(-1.98 -2.05)"/></svg>