<svg id="Layer_1" data-name="Layer 1" xmlns="http://www.w3.org/2000/svg" xmlns:xlink="http://www.w3.org/1999/xlink" viewBox="0 0 273 69.5"><defs><style>.cls-1{fill:#323331;}.cls-2{fill:url(#linear-gradient);}.cls-3{fill:#de2c60;}.cls-4{fill:#205e97;}.cls-5{fill:url(#linear-gradient-2);}.cls-6{fill:url(#linear-gradient-3);}.cls-7{fill:url(#linear-gradient-4);}</style><linearGradient id="linear-gradient" x1="10.89" y1="65.44" x2="10.89" y2="27.42" gradientUnits="userSpaceOnUse"><stop offset="0" stop-color="#ee641c"/><stop offset="1" stop-color="#f6c405"/></linearGradient><linearGradient id="linear-gradient-2" x1="0.43" y1="46.27" x2="20.37" y2="46.27" xlink:href="#linear-gradient"/><linearGradient id="linear-gradient-3" x1="24.62" y1="48.43" x2="51.03" y2="48.43" gradientUnits="userSpaceOnUse"><stop offset="0" stop-color="#b41f70"/><stop offset="1" stop-color="#e32d5e"/></linearGradient><linearGradient id="linear-gradient-4" x1="4.43" y1="22.92" x2="56.55" y2="22.92" gradientUnits="userSpaceOnUse"><stop offset="0" stop-color="#1f548c"/><stop offset="1" stop-color="#2aa8ec"/></linearGradient></defs><title>Yoroflow Logo</title><path class="cls-1" d="M62.3,22.24h5l6.34,13.43L80,22.24h5L75.89,39.69v9.92H71.4V39.69Z"/><path class="cls-1" d="M101,49.89a13.71,13.71,0,0,1-14-14,14,14,0,0,1,28,0A13.66,13.66,0,0,1,101,49.89Zm0-3.9c5.43,0,9.37-3.94,9.37-10.12s-3.94-10-9.37-10-9.38,3.86-9.38,10S95.54,46,101,46Z"/><path class="cls-1" d="M128.82,22.24c6.5,0,9.69,3.74,9.69,8.19a7.8,7.8,0,0,1-6.34,7.84l6.77,11.34h-5.36l-6.3-11h-3.42v11h-4.49V22.24Zm0,3.66h-5v9.18h5c3.5,0,5.08-1.93,5.08-4.65S132.32,25.9,128.82,25.9Z"/><path class="cls-1" d="M156.74,49.89a13.7,13.7,0,0,1-14-14,14,14,0,1,1,28,0A13.65,13.65,0,0,1,156.74,49.89Zm0-3.9c5.44,0,9.37-3.94,9.37-10.12s-3.93-10-9.37-10-9.37,3.86-9.37,10S151.31,46,156.74,46Z"/><path class="cls-1" d="M175.33,22.08h14.89v2.29H178.08V34.65h10.25v2.28H178.08V49.61h-2.75Z"/><path class="cls-1" d="M197.5,22.08V47.37h9.89v2.24H194.74V22.08Z"/><path class="cls-1" d="M221.84,49.89c-7.72,0-13.63-5.79-13.63-14.06s5.91-14.06,13.63-14.06,13.63,5.83,13.63,14.06S229.6,49.89,221.84,49.89Zm0-2.4c6.1,0,10.79-4.45,10.79-11.66s-4.69-11.62-10.79-11.62-10.79,4.41-10.79,11.62S215.73,47.49,221.84,47.49Z"/><path class="cls-1" d="M236.72,22.08h3L246,46.23,253,22.08h3.07L263,46.23l6.35-24.15h2.95l-7.8,27.53h-3.07l-6.93-23.47-7.09,23.47-3,0Z"/><polygon class="cls-2" points="19.79 46.53 1.42 27.73 0.43 27.42 1.99 46.35 20.37 65.12 21.35 65.44 19.79 46.53"/><polygon class="cls-3" points="40.49 51.93 39.58 51.68 44.23 45.6 45.14 45.85 40.49 51.93"/><polygon class="cls-3" points="45.14 45.85 44.23 45.6 38.94 44.01 39.85 44.26 45.14 45.85"/><polygon class="cls-3" points="25.88 58.58 24.96 58.32 39.43 49.92 40.35 50.17 25.88 58.58"/><polygon class="cls-3" points="26.6 65.48 25.68 65.23 24.96 58.32 25.88 58.58 26.6 65.48"/><polygon class="cls-3" points="24.62 46.58 23.7 46.33 48.59 31.14 49.51 31.39 24.62 46.58"/><polygon class="cls-3" points="25.46 54.6 24.54 54.34 23.7 46.33 24.62 46.58 25.46 54.6"/><polygon class="cls-3" points="24.62 46.58 49.51 31.39 51.03 50.18 26.6 65.48 25.88 58.58 40.35 50.17 40.49 51.93 45.14 45.85 39.85 44.26 40.01 46.17 25.46 54.6 24.62 46.58"/><polygon class="cls-4" points="36.6 4.45 35.48 5.26 38.24 8.14 33.09 11.45 28.82 7.02 4.43 22.71 3.32 23.52 21.45 42.63 46.3 27.17 47.41 26.36 42.81 21.57 47.99 18.34 50.78 21.25 51.89 20.44 56.55 4.02 36.6 4.45"/><polygon class="cls-5" points="0.43 27.42 18.81 46.22 20.37 65.12 1.99 46.35 0.43 27.42"/><polygon class="cls-6" points="24.62 46.58 49.51 31.39 51.03 50.18 26.6 65.48 25.88 58.58 40.35 50.17 40.49 51.93 45.14 45.85 39.85 44.26 40.01 46.17 25.46 54.6 24.62 46.58"/><polygon class="cls-7" points="39.41 7.38 36.6 4.45 56.55 4.02 51.89 20.44 49.11 17.53 42.74 21.49 47.41 26.36 22.57 41.82 4.43 22.71 28.82 7.02 33.09 11.45 39.41 7.38"/></svg>