<svg id="Layer_1" data-name="Layer 1" xmlns="http://www.w3.org/2000/svg" viewBox="0 0 300 300"><defs><style>.cls-1{fill:#e91e46;}</style></defs><title>clear filter</title><path class="cls-1" d="M68.76,8.09C79.85,23.22,91.05,38.27,102,53.5q59.3,82.27,118.4,164.71a26.81,26.81,0,0,1,4.86,10.09c.42,2.14-1.31,5.56-3.17,6.94-1,.75-4.76-1-6.44-2.6-2.4-2.22-4-5.26-6-8Q139,126.39,68.32,28.09c-2.34-3.25-4.48-6.66-6.72-10a15.16,15.16,0,0,0,0-2.86C60.35,9.18,62.7,6.8,68.76,8.09Z"/><path class="cls-1" d="M171.77,234.9c0,14.54,0,29.08,0,43.62,0,2.37.36,5.12-.69,7-1.5,2.68-3.8,5.63-6.46,6.66-1.42.55-5-2.22-6.41-4.3-9.78-14.66-19.47-29.4-28.64-44.45-2.2-3.62-3.17-8.5-3.24-12.82-.31-22.4,0-44.81-.3-67.21a23.85,23.85,0,0,0-3.42-11.88Q96.18,109.89,69.15,68.65c-3.37-5.18-4.71-10.49-2.29-16.17A12.69,12.69,0,0,1,72,47.15c.52-.3,3.19,2.25,4.35,3.86q36.49,50.79,72.85,101.67c6.1,8.53,12.06,17.16,18.39,25.51a19.71,19.71,0,0,1,4.31,13.09C171.57,205.81,171.77,220.36,171.77,234.9Z"/><path class="cls-1" d="M106.07,46.81c3.05-.14,5.33-.32,7.6-.33q56.42,0,112.83,0c4,0,8.31-.83,10.54,3.94,2.39,5.13,2.46,10.1-1.1,14.79q-28.5,37.52-57,75c-1.88,2.48-3.2,3.9-5.69.45Q140.7,95.55,108,50.52A33.24,33.24,0,0,1,106.07,46.81Z"/></svg>