<svg id="Layer_1" data-name="Layer 1" xmlns="http://www.w3.org/2000/svg" viewBox="0 0 64.4 60"><defs><style>.cls-1{fill:#7abc52;}</style></defs><title>Bar Chart &amp;amp; Square Root</title><path class="cls-1" d="M63,60H3.25A3.26,3.26,0,0,1,0,56.75V1.46A1.46,1.46,0,0,1,1.46,0H5.05A1.45,1.45,0,0,1,6.5,1.46v52H63A1.45,1.45,0,0,1,64.4,55v3.59A1.45,1.45,0,0,1,63,60Z"/><rect class="cls-1" x="13.88" y="1.46" width="12.66" height="6.5" rx="1.46" ry="1.46"/><rect class="cls-1" x="13.88" y="14.56" width="34.47" height="6.5" rx="1.46" ry="1.46"/><rect class="cls-1" x="13.88" y="27.66" width="19.5" height="6.5" rx="1.46" ry="1.46"/><rect class="cls-1" x="13.88" y="40.77" width="32.84" height="6.5" rx="1.46" ry="1.46"/></svg>