<svg id="Layer_1" data-name="Layer 1" xmlns="http://www.w3.org/2000/svg" xmlns:xlink="http://www.w3.org/1999/xlink" viewBox="0 0 1859 1201.06"><defs><style>.cls-1,.cls-11,.cls-13{fill:none;}.cls-2{clip-path:url(#clip-path);}.cls-3{clip-path:url(#clip-path-2);}.cls-4{fill:#5ea5bf;}.cls-5{fill:#66afc6;}.cls-6{fill:#6fbad0;}.cls-7{fill:#78c9e0;}.cls-8{fill:#eaeaea;}.cls-9{fill:#6da941;}.cls-10{fill:#fff;}.cls-11{stroke:#000;stroke-width:3.41px;}.cls-11,.cls-13{stroke-linecap:round;stroke-miterlimit:10;}.cls-12{fill:#36a8a8;}.cls-13{stroke:#36a8a8;stroke-width:4.25px;}</style><clipPath id="clip-path"><rect class="cls-1" y="-1351.37" width="1859" height="1202.7"/></clipPath><clipPath id="clip-path-2"><rect class="cls-1" x="-509.36" y="-1350.64" width="2380.17" height="1201.97"/></clipPath></defs><title>Login Page</title><g class="cls-2"><g class="cls-3"><circle class="cls-4" cx="1016.54" cy="-247.51" r="876.43"/><circle class="cls-5" cx="1016.54" cy="-247.51" r="692.46"/><circle class="cls-6" cx="1016.54" cy="-247.51" r="507.46"/><circle class="cls-7" cx="1016.54" cy="-247.51" r="332.08"/></g></g><rect class="cls-8" width="1860.39" height="1201.06"/><circle class="cls-9" cx="121" cy="187.39" r="14.99"/><circle class="cls-9" cx="196.63" cy="123.63" r="14.99"/><circle class="cls-9" cx="157.58" cy="151.16" r="55.12"/><path d="M121,198.2a10.81,10.81,0,1,1,8.2-17.82h12.13L148,163a10.74,10.74,0,0,1-1.27-5.07,10.56,10.56,0,0,1,.86-4.2l-13.27-23h-9.88v-14h18l14,24.37,9.42-24.37h22.58a10.81,10.81,0,1,1,0,14H175.56l-7.8,20.21h14.41l-5.26,14H165.77a10.79,10.79,0,0,1-4.66,3.17l-6.94,18-3.2,8.36H129.2A10.86,10.86,0,0,1,121,198.2Z"/><polygon class="cls-10" points="140.07 120.79 143.36 126.48 128.66 126.48 128.66 120.79 140.07 120.79"/><polygon class="cls-10" points="194.68 120.79 194.68 126.48 166.59 126.48 168.79 120.79 194.68 120.79"/><rect class="cls-10" x="121.62" y="184.55" width="24.04" height="5.69"/><polygon class="cls-10" points="176.15 155.04 174.02 160.73 153.37 160.73 154.62 157.47 153.24 155.04 176.15 155.04"/><polygon class="cls-10" points="163.08 160.73 159.48 160.73 158.28 163.82 156.5 160.73 154.62 157.47 153.24 155.04 136.78 126.48 133.51 120.79 140.07 120.79 143.36 126.48 157.26 150.64 159.8 155.04 160.92 156.99 163.08 160.73"/><polygon class="cls-10" points="174.88 120.79 172.69 126.48 161.68 155.04 160.92 156.99 159.48 160.73 158.28 163.82 150.28 184.55 148.1 190.24 141.99 190.24 144.19 184.55 153.37 160.73 154.62 157.47 155.57 155.04 157.26 150.64 166.59 126.48 168.79 120.79 174.88 120.79"/><circle class="cls-10" cx="157.58" cy="157.88" r="6.64"/><circle class="cls-10" cx="121" cy="187.39" r="6.64"/><polygon class="cls-10" points="194.07 123.63 194.07 118.15 198.29 120.89 202.51 123.63 198.29 126.37 194.07 129.12 194.07 123.63"/><path d="M248.05,160.67v31.18h-8.63V160.67l-17.17-36h9.21l12.66,27.92,12.66-27.92h8.73Z"/><path d="M297.3,188.21q-4,3.64-12.32,3.64h-1.25q-8.34,0-12.33-3.64t-4-11.71V159.24q0-8.07,4-11.71t12.33-3.64H285q8.34,0,12.32,3.64t4,11.71V176.5Q301.28,184.56,297.3,188.21Zm-6-35.5a7.87,7.87,0,0,0-5.37-1.63h-3.17a7.84,7.84,0,0,0-5.37,1.63,5.86,5.86,0,0,0-1.82,4.61v21.1A5.86,5.86,0,0,0,277.4,183a7.84,7.84,0,0,0,5.37,1.63h3.17a7.87,7.87,0,0,0,5.37-1.63,5.89,5.89,0,0,0,1.82-4.61v-21.1A5.89,5.89,0,0,0,291.31,152.71Z"/><path d="M313.11,143.89h7.68v2.59a11.69,11.69,0,0,1,7.67-2.59h7v7.67h-8a5.44,5.44,0,0,0-4.7,2.11,7.05,7.05,0,0,0-1.53,4.13v34h-8.16Z"/><path d="M374.05,188.21q-4,3.64-12.32,3.64h-1.25q-8.34,0-12.33-3.64t-4-11.71V159.24q0-8.07,4-11.71t12.33-3.64h1.25q8.34,0,12.32,3.64t4,11.71V176.5Q378,184.56,374.05,188.21Zm-6-35.5a7.87,7.87,0,0,0-5.37-1.63h-3.17a7.84,7.84,0,0,0-5.37,1.63,5.86,5.86,0,0,0-1.82,4.61v21.1a5.86,5.86,0,0,0,1.82,4.61,7.84,7.84,0,0,0,5.37,1.63h3.17a7.87,7.87,0,0,0,5.37-1.63,5.89,5.89,0,0,0,1.82-4.61v-21.1A5.89,5.89,0,0,0,368.06,152.71Z"/><path d="M420.32,189.55q-2.44-2.31-2.45-7.29V131.9H404.92a3.52,3.52,0,0,0-2.44.81,2.64,2.64,0,0,0-.91,2.06v9.12h8.82v7.19h-8.82v40.77h-8.16V151.08h-6.23v-7.19h6.23v-8.64a10.56,10.56,0,0,1,2.78-7.72,9.7,9.7,0,0,1,7.2-2.83H426v57.08a2.78,2.78,0,0,0,.76,2.2,3.94,3.94,0,0,0,2.59.68h1.92v7.19H426A8.08,8.08,0,0,1,420.32,189.55Z"/><path d="M470.76,188.21q-4,3.64-12.33,3.64h-1.25q-8.34,0-12.32-3.64t-4-11.71V159.24q0-8.07,4-11.71t12.32-3.64h1.25q8.34,0,12.33,3.64t4,11.71V176.5Q474.74,184.56,470.76,188.21Zm-6-35.5a7.85,7.85,0,0,0-5.37-1.63h-3.17a7.87,7.87,0,0,0-5.37,1.63,5.89,5.89,0,0,0-1.82,4.61v21.1a5.89,5.89,0,0,0,1.82,4.61,7.87,7.87,0,0,0,5.37,1.63h3.17a7.85,7.85,0,0,0,5.37-1.63,5.86,5.86,0,0,0,1.82-4.61v-21.1A5.86,5.86,0,0,0,464.76,152.71Z"/><path d="M530.57,191.85H518l-6-26-6.62,26H493.06l-9.59-48h8.44l7.77,41.82,8.54-33.19h8.15l8,33.19,7.77-41.82h8Z"/><path d="M98.58,308.41h2.09l3.59,16.93q1,4.68,2,9.36h.17c.68-3.12,1.43-6.25,2.19-9.36l4.48-16.93h2l4.48,16.93c.76,3.1,1.51,6.23,2.27,9.36H122c.65-3.13,1.23-6.25,1.89-9.36l3.59-16.93h2l-6.4,28.72h-2.19l-5.21-19.72c-.52-2.25-1-4.22-1.51-6.46H114c-.5,2.24-1.07,4.21-1.58,6.46l-5.13,19.72h-2.17Z"/><path d="M133,326.7c0-6.82,4.42-11,9.08-11,4.93,0,8,3.53,8,9.68a9.14,9.14,0,0,1-.11,1.57H135c.07,5.28,3.15,9.06,7.84,9.06a9.33,9.33,0,0,0,5.59-1.86l.79,1.46a11.34,11.34,0,0,1-6.56,2.06C137.3,337.65,133,333.55,133,326.7Zm15.25-1.36c0-5.34-2.41-8-6.15-8-3.52,0-6.7,3-7.14,8Z"/><path d="M155.67,334.32V305.78h1.92v28.8c0,.94.38,1.37.9,1.37a3.15,3.15,0,0,0,.78-.09l.32,1.57a4.09,4.09,0,0,1-1.38.22C156.54,337.65,155.67,336.61,155.67,334.32Z"/><path d="M164.19,326.7c0-7,4.44-11,9.51-11a8.51,8.51,0,0,1,6.09,2.58l-1.12,1.34a7.13,7.13,0,0,0-4.93-2.22c-4.26,0-7.54,3.82-7.54,9.32s3,9.25,7.51,9.25a8.29,8.29,0,0,0,5.58-2.41l1,1.35a9.9,9.9,0,0,1-6.65,2.76C168.25,337.65,164.19,333.62,164.19,326.7Z"/><path d="M182.9,326.7c0-7,4.34-11,9.34-11s9.35,4,9.35,11-4.34,10.95-9.35,10.95S182.9,333.62,182.9,326.7Zm16.68,0c0-5.5-3.13-9.32-7.34-9.32s-7.33,3.82-7.33,9.32S188,336,192.24,336,199.58,332.21,199.58,326.7Z"/><path d="M207.83,316.2h1.62l.21,3.25h.09c1.89-2.13,4.26-3.77,6.58-3.77a5.39,5.39,0,0,1,5.75,4.27c2.37-2.62,4.67-4.27,7.07-4.27,4.14,0,6.22,2.62,6.22,8v13.42h-1.91V324c0-4.44-1.48-6.55-4.67-6.55-2,0-3.93,1.31-6.23,3.93v15.79h-1.92V324c0-4.44-1.47-6.55-4.66-6.55-1.88,0-3.94,1.31-6.23,3.93v15.79h-1.92Z"/><path d="M241.29,326.7c0-6.82,4.41-11,9.07-11,4.94,0,8,3.53,8,9.68a9.14,9.14,0,0,1-.11,1.57h-15c.07,5.28,3.15,9.06,7.84,9.06a9.3,9.3,0,0,0,5.59-1.86l.79,1.46a11.34,11.34,0,0,1-6.56,2.06C245.6,337.65,241.29,333.55,241.29,326.7Zm15.24-1.36c0-5.34-2.41-8-6.15-8-3.52,0-6.7,3-7.13,8Z"/><path d="M273.12,331.35V317.88h-3.25v-1.49l3.29-.19.25-6.06H275v6.06h6v1.68h-6v13.61c0,2.68.66,4.48,3.53,4.48a7.44,7.44,0,0,0,2.61-.66l.51,1.56a12.21,12.21,0,0,1-3.4.78C274.29,337.65,273.12,335.1,273.12,331.35Z"/><path d="M283.92,326.7c0-7,4.35-11,9.35-11s9.35,4,9.35,11-4.35,10.95-9.35,10.95S283.92,333.62,283.92,326.7Zm16.68,0c0-5.5-3.13-9.32-7.33-9.32s-7.34,3.82-7.34,9.32,3.13,9.25,7.34,9.25S300.6,332.21,300.6,326.7Z"/><path d="M314.51,346.22l.44-1.67a5.08,5.08,0,0,0,1.7.34c2.54,0,4.28-2.36,5.33-5.55l.58-1.82L314,316.2h2.07l5,13.15c.68,1.77,1.51,4,2.26,5.88h.18c.66-1.86,1.33-4.1,1.93-5.88l4.43-13.15h2l-8.22,23.56c-1.16,3.49-3.27,6.89-7,6.89A5.3,5.3,0,0,1,314.51,346.22Z"/><path d="M334.58,326.7c0-7,4.34-11,9.35-11s9.34,4,9.34,11-4.34,10.95-9.34,10.95S334.58,333.62,334.58,326.7Zm16.68,0c0-5.5-3.13-9.32-7.33-9.32s-7.34,3.82-7.34,9.32,3.13,9.25,7.34,9.25S351.26,332.21,351.26,326.7Z"/><path d="M359.51,316.2h1.63l.2,3.91h.1c1.41-2.57,3.45-4.43,5.92-4.43a4.29,4.29,0,0,1,2.06.43l-.43,1.75a4.5,4.5,0,0,0-1.88-.35c-1.87,0-4.09,1.43-5.68,5.38v14.24h-1.92Z"/><path d="M371.08,326.7c0-7,4.34-11,9.35-11s9.34,4,9.34,11-4.34,10.95-9.34,10.95S371.08,333.62,371.08,326.7Zm16.68,0c0-5.5-3.13-9.32-7.33-9.32s-7.34,3.82-7.34,9.32,3.13,9.25,7.34,9.25S387.76,332.21,387.76,326.7Z"/><path d="M393.4,316.39l2.9-.19H403v1.68H393.4Zm2.86-4.84c0-4.16,1.85-6.3,5.15-6.3a7.66,7.66,0,0,1,3,.71l-.52,1.57a5.61,5.61,0,0,0-2.48-.59c-2.24,0-3.27,1.71-3.27,4.74v25.45h-1.91Z"/><path d="M407.36,334.32V305.78h1.92v28.8c0,.94.38,1.37.9,1.37a3.15,3.15,0,0,0,.78-.09l.32,1.57a4.09,4.09,0,0,1-1.38.22C408.23,337.65,407.36,336.61,407.36,334.32Z"/><path d="M415.87,326.7c0-7,4.35-11,9.35-11s9.35,4,9.35,11-4.35,10.95-9.35,10.95S415.87,333.62,415.87,326.7Zm16.69,0c0-5.5-3.13-9.32-7.34-9.32s-7.33,3.82-7.33,9.32S421,336,425.22,336,432.56,332.21,432.56,326.7Z"/><path d="M437.81,316.2h2.06l3.76,13.55c.5,1.94,1,3.73,1.41,5.6h.17c.51-1.87,1-3.67,1.53-5.6l3.79-13.55h2.27l3.8,13.55c.52,1.94,1,3.73,1.53,5.6h.18c.5-1.87,1-3.66,1.49-5.6l3.67-13.55h1.94l-6,20.93h-2.51l-3.66-13c-.58-2-1-3.93-1.59-6h-.17c-.51,2-1,4-1.66,6l-3.58,12.92H444Z"/><path d="M468.71,335.71a1.84,1.84,0,1,1,3.67,0,1.84,1.84,0,1,1-3.67,0Z"/><path d="M477,326.7c0-7,4.45-11,9.51-11a8.54,8.54,0,0,1,6.1,2.58l-1.13,1.34a7.09,7.09,0,0,0-4.92-2.22c-4.26,0-7.55,3.82-7.55,9.32s3,9.25,7.52,9.25a8.26,8.26,0,0,0,5.57-2.41l1,1.35a9.86,9.86,0,0,1-6.65,2.76C481.09,337.65,477,333.62,477,326.7Z"/><path d="M495.73,326.7c0-7,4.35-11,9.35-11s9.34,4,9.34,11-4.34,10.95-9.34,10.95S495.73,333.62,495.73,326.7Zm16.68,0c0-5.5-3.13-9.32-7.33-9.32s-7.34,3.82-7.34,9.32,3.13,9.25,7.34,9.25S512.41,332.21,512.41,326.7Z"/><path d="M520.67,316.2h1.62l.21,3.25h.09c1.89-2.13,4.26-3.77,6.58-3.77a5.39,5.39,0,0,1,5.75,4.27c2.36-2.62,4.66-4.27,7.07-4.27,4.14,0,6.22,2.62,6.22,8v13.42h-1.92V324c0-4.44-1.47-6.55-4.66-6.55-2,0-3.94,1.31-6.23,3.93v15.79h-1.92V324c0-4.44-1.47-6.55-4.66-6.55-1.89,0-3.94,1.31-6.24,3.93v15.79h-1.91Z"/><path d="M99.13,407.08l1.52-1c1.42,2.46,3.12,3.41,5.5,3.41,3.48,0,5.15-2.06,5.15-6.73V382.07h2V403c0,4.65-1.94,8.34-7.12,8.34A7.6,7.6,0,0,1,99.13,407.08Z"/><path d="M119.66,400.36c0-7,4.34-11,9.35-11s9.34,4,9.34,11S134,411.31,129,411.31,119.66,407.28,119.66,400.36Zm16.68,0c0-5.51-3.13-9.33-7.33-9.33s-7.34,3.82-7.34,9.33,3.13,9.25,7.34,9.25S136.34,405.87,136.34,400.36Z"/><path d="M143.85,383.09a1.74,1.74,0,0,1,3.48,0,1.74,1.74,0,0,1-3.48,0Zm.74,6.77h1.92v20.92h-1.92Z"/><path d="M154.5,389.86h1.62l.21,3.24h.1c2.12-2.13,4.29-3.76,7.16-3.76,4.3,0,6.29,2.62,6.29,8v13.42H168V397.61c0-4.43-1.4-6.54-4.74-6.54-2.48,0-4.28,1.32-6.81,3.93v15.78H154.5Z"/><path d="M183.24,419.88l.44-1.67a5.08,5.08,0,0,0,1.7.34c2.54,0,4.28-2.36,5.34-5.55l.57-1.82-8.55-21.32h2.07l5,13.15c.69,1.77,1.51,4,2.26,5.88h.18c.67-1.86,1.33-4.1,1.93-5.88l4.43-13.15h2l-8.22,23.56c-1.16,3.49-3.27,6.89-7,6.89A5.39,5.39,0,0,1,183.24,419.88Z"/><path d="M203.31,400.36c0-7,4.35-11,9.35-11s9.35,4,9.35,11-4.35,10.95-9.35,10.95S203.31,407.28,203.31,400.36Zm16.69,0c0-5.51-3.13-9.33-7.34-9.33s-7.33,3.82-7.33,9.33,3.13,9.25,7.33,9.25S220,405.87,220,400.36Z"/><path d="M228.25,389.86h1.62l.21,3.9h.09c1.41-2.57,3.45-4.42,5.92-4.42a4.36,4.36,0,0,1,2.07.43l-.44,1.74a4.66,4.66,0,0,0-1.88-.34c-1.87,0-4.09,1.42-5.68,5.38v14.23h-1.91Z"/><path d="M239.81,400.36c0-7,4.35-11,9.35-11s9.35,4,9.35,11-4.35,10.95-9.35,10.95S239.81,407.28,239.81,400.36Zm16.68,0c0-5.51-3.13-9.33-7.33-9.33s-7.34,3.82-7.34,9.33,3.13,9.25,7.34,9.25S256.49,405.87,256.49,400.36Z"/><path d="M262.13,390l2.9-.18h6.69v1.68h-9.59ZM265,385.2c0-4.15,1.86-6.29,5.15-6.29a7.66,7.66,0,0,1,3,.71l-.52,1.56a5.72,5.72,0,0,0-2.48-.59c-2.24,0-3.26,1.71-3.26,4.74v25.45H265Z"/><path d="M276.1,408V379.43H278v28.81c0,.93.38,1.37.9,1.37a3.15,3.15,0,0,0,.78-.09l.32,1.57a4.34,4.34,0,0,1-1.37.22C277,411.31,276.1,410.27,276.1,408Z"/><path d="M284.61,400.36c0-7,4.34-11,9.34-11s9.35,4,9.35,11S299,411.31,294,411.31,284.61,407.28,284.61,400.36Zm16.68,0c0-5.51-3.13-9.33-7.34-9.33s-7.33,3.82-7.33,9.33,3.13,9.25,7.33,9.25S301.29,405.87,301.29,400.36Z"/><path d="M306.54,389.86h2.07l3.75,13.54c.5,2,1,3.73,1.41,5.61H314c.5-1.88,1-3.67,1.52-5.61l3.79-13.54h2.27l3.8,13.54c.52,2,1,3.73,1.54,5.61H327c.5-1.88,1-3.66,1.49-5.61l3.68-13.54h1.93l-6,20.92h-2.5l-3.67-13c-.58-2-1-3.93-1.59-6h-.17c-.5,2.05-1,4.05-1.66,6.06L315,410.78h-2.33Z"/><path d="M348.33,405V391.54h-3.25V390l3.29-.18.25-6.06h1.63v6.06h6v1.68h-6v13.61c0,2.67.66,4.48,3.53,4.48a7.51,7.51,0,0,0,2.61-.67l.51,1.56a11.92,11.92,0,0,1-3.4.79C349.5,411.31,348.33,408.75,348.33,405Z"/><path d="M359.13,400.36c0-7,4.35-11,9.35-11s9.35,4,9.35,11-4.35,10.95-9.35,10.95S359.13,407.28,359.13,400.36Zm16.68,0c0-5.51-3.13-9.33-7.33-9.33s-7.34,3.82-7.34,9.33,3.13,9.25,7.34,9.25S375.81,405.87,375.81,400.36Z"/><path d="M392.69,389.86h1.62l.21,3.24h.1c1.89-2.13,4.25-3.76,6.58-3.76a5.39,5.39,0,0,1,5.75,4.27c2.36-2.62,4.66-4.27,7.06-4.27,4.15,0,6.23,2.62,6.23,8v13.42h-1.92V397.61c0-4.43-1.47-6.54-4.66-6.54-2,0-3.94,1.31-6.24,3.93v15.78h-1.91V397.61c0-4.43-1.48-6.54-4.67-6.54-1.88,0-3.93,1.31-6.23,3.93v15.78h-1.92Z"/><path d="M426.41,405.58c0-4.65,4.17-6.87,13.43-7.9.06-3.21-.81-6.65-4.91-6.65a11.4,11.4,0,0,0-6.63,2.45l-.88-1.43a14,14,0,0,1,7.74-2.71c4.93,0,6.6,3.59,6.6,8.07v13.37h-1.63l-.2-2.72h-.1c-2.12,1.73-4.65,3.25-7.39,3.25C429.15,411.31,426.41,409.5,426.41,405.58Zm13.43.69v-7.12c-8.55,1-11.47,3-11.47,6.33,0,3,2,4.15,4.41,4.15S437.26,408.47,439.84,406.27Z"/><path d="M449.19,389.86h1.62l.2,3.24h.1c2.12-2.13,4.29-3.76,7.16-3.76,4.3,0,6.3,2.62,6.3,8v13.42h-1.92V397.61c0-4.43-1.4-6.54-4.74-6.54-2.48,0-4.28,1.32-6.81,3.93v15.78h-1.91Z"/><path d="M470.74,405.58c0-4.65,4.17-6.87,13.43-7.9.06-3.21-.82-6.65-4.91-6.65a11.37,11.37,0,0,0-6.63,2.45l-.89-1.43a14,14,0,0,1,7.75-2.71c4.93,0,6.59,3.59,6.59,8.07v13.37h-1.62l-.21-2.72h-.09c-2.12,1.73-4.66,3.25-7.39,3.25C473.48,411.31,470.74,409.5,470.74,405.58Zm13.43.69v-7.12c-8.55,1-11.47,3-11.47,6.33,0,3,2,4.15,4.41,4.15S481.59,408.47,484.17,406.27Z"/><path d="M491.75,415.06a6.56,6.56,0,0,1,3.12-5v-.18a3.76,3.76,0,0,1-1.84-3.35,4.92,4.92,0,0,1,2.27-3.86v-.18a7.68,7.68,0,0,1-2.64-5.73,7.2,7.2,0,0,1,7.33-7.38,7.41,7.41,0,0,1,2.77.52h7v1.64H505a6.9,6.9,0,0,1,2.29,5.24,7.17,7.17,0,0,1-7.27,7.39,7.08,7.08,0,0,1-3.44-.89,3.86,3.86,0,0,0-1.69,3c0,1.51.86,2.72,4,2.72h4.46c4.68,0,6.86,1.5,6.86,4.8,0,3.61-3.84,7.07-9.84,7.07C495.06,420.86,491.75,418.59,491.75,415.06ZM508.19,414c0-2.31-1.66-3.19-4.81-3.19h-4.46a13.54,13.54,0,0,1-2.58-.34,5.44,5.44,0,0,0-2.73,4.39c0,2.65,2.51,4.44,6.9,4.44C505.2,419.3,508.19,416.63,508.19,414Zm-2.82-17.28c0-3.54-2.43-5.79-5.38-5.79s-5.38,2.21-5.38,5.79a5.4,5.4,0,1,0,10.76,0Z"/><path d="M512.38,400.36c0-6.82,4.41-11,9.08-11,4.93,0,8,3.52,8,9.68a9.27,9.27,0,0,1-.1,1.57h-15c.07,5.28,3.14,9.05,7.83,9.05a9.39,9.39,0,0,0,5.6-1.85l.79,1.46a11.38,11.38,0,0,1-6.57,2.06C516.69,411.31,512.38,407.2,512.38,400.36ZM527.62,399c0-5.34-2.41-8-6.15-8-3.52,0-6.7,3-7.13,8Z"/><path d="M540.75,419.88l.45-1.67a5.08,5.08,0,0,0,1.7.34c2.54,0,4.27-2.36,5.33-5.55l.57-1.82-8.55-21.32h2.07l5,13.15c.69,1.77,1.51,4,2.27,5.88h.17c.67-1.86,1.34-4.1,1.93-5.88l4.43-13.15h2l-8.22,23.56c-1.16,3.49-3.26,6.89-7,6.89A5.39,5.39,0,0,1,540.75,419.88Z"/><path d="M560.82,400.36c0-7,4.35-11,9.35-11s9.35,4,9.35,11-4.35,10.95-9.35,10.95S560.82,407.28,560.82,400.36Zm16.69,0c0-5.51-3.13-9.33-7.34-9.33s-7.33,3.82-7.33,9.33,3.13,9.25,7.33,9.25S577.51,405.87,577.51,400.36Z"/><path d="M585.43,403.28V389.86h1.91V403c0,4.43,1.4,6.54,4.75,6.54,2.48,0,4.27-1.3,6.71-4.27V389.86h1.91v20.92h-1.62l-.21-3.5h-.09c-2,2.41-4.2,4-7.07,4C587.42,411.31,585.43,408.68,585.43,403.28Z"/><path d="M608.71,389.86h1.62l.21,3.9h.09c1.41-2.57,3.45-4.42,5.92-4.42a4.36,4.36,0,0,1,2.07.43l-.44,1.74a4.66,4.66,0,0,0-1.88-.34c-1.87,0-4.09,1.42-5.68,5.38v14.23h-1.91Z"/><path d="M628.17,389.86h2.06L634,403.4c.5,2,1,3.73,1.41,5.61h.17c.51-1.88,1-3.67,1.53-5.61l3.79-13.54h2.27L647,403.4c.52,2,1,3.73,1.53,5.61h.18c.5-1.88,1-3.66,1.49-5.61l3.67-13.54h1.94l-6,20.92H647.3l-3.66-13c-.58-2-1-3.93-1.59-6h-.17c-.51,2.05-1,4.05-1.66,6.06l-3.58,12.91h-2.33Z"/><path d="M659,400.36c0-7,4.34-11,9.34-11s9.35,4,9.35,11-4.34,10.95-9.35,10.95S659,407.28,659,400.36Zm16.68,0c0-5.51-3.13-9.33-7.34-9.33s-7.33,3.82-7.33,9.33,3.13,9.25,7.33,9.25S675.69,405.87,675.69,400.36Z"/><path d="M683.94,389.86h1.62l.21,3.9h.1c1.41-2.57,3.44-4.42,5.92-4.42a4.29,4.29,0,0,1,2.06.43l-.43,1.74a4.69,4.69,0,0,0-1.88-.34c-1.88,0-4.1,1.42-5.68,5.38v14.23h-1.92Z"/><path d="M697.69,379.43h1.9v23.11h.1L710,389.86h2.21l-6.78,8.28,7.92,12.64h-2.14l-6.91-11.2-4.67,5.5v5.7h-1.9Z"/><path d="M717.79,389.86h1.62l.21,2.63h.09c2-1.64,4.51-3.15,7.07-3.15,5.58,0,8.33,4.2,8.33,10.67,0,7.11-4.27,11.3-9.17,11.3a10.82,10.82,0,0,1-6.26-2.57l0,3.86v7.66h-1.91ZM733.1,400c0-5.14-1.82-9-6.62-9-2.07,0-4.26,1.22-6.78,3.45v12.42a10.09,10.09,0,0,0,6.13,2.69C730.06,409.6,733.1,405.69,733.1,400Z"/><path d="M741.33,408V379.43h1.91v28.81c0,.93.38,1.37.9,1.37a3.1,3.1,0,0,0,.78-.09l.32,1.57a4.34,4.34,0,0,1-1.37.22C742.19,411.31,741.33,410.27,741.33,408Z"/><path d="M750.1,405.58c0-4.65,4.17-6.87,13.43-7.9.06-3.21-.82-6.65-4.91-6.65a11.4,11.4,0,0,0-6.63,2.45l-.88-1.43a14,14,0,0,1,7.74-2.71c4.93,0,6.6,3.59,6.6,8.07v13.37h-1.63l-.2-2.72h-.1c-2.12,1.73-4.65,3.25-7.39,3.25C752.84,411.31,750.1,409.5,750.1,405.58Zm13.43.69v-7.12c-8.55,1-11.47,3-11.47,6.33,0,3,2,4.15,4.41,4.15S761,408.47,763.53,406.27Z"/><path d="M771.12,400.36c0-7,4.45-11,9.51-11a8.55,8.55,0,0,1,6.1,2.57l-1.13,1.35a7.06,7.06,0,0,0-4.92-2.23c-4.26,0-7.55,3.82-7.55,9.33s3,9.25,7.52,9.25a8.25,8.25,0,0,0,5.58-2.42l1,1.35a9.81,9.81,0,0,1-6.64,2.77C775.19,411.31,771.12,407.28,771.12,400.36Z"/><path d="M789.83,400.36c0-6.82,4.42-11,9.08-11,4.93,0,8,3.52,8,9.68a9.28,9.28,0,0,1-.11,1.57h-15c.07,5.28,3.15,9.05,7.84,9.05a9.39,9.39,0,0,0,5.59-1.85l.79,1.46a11.34,11.34,0,0,1-6.56,2.06C794.14,411.31,789.83,407.2,789.83,400.36ZM805.07,399c0-5.34-2.41-8-6.14-8-3.52,0-6.7,3-7.14,8Z"/><path d="M811.43,409.36a1.84,1.84,0,1,1,3.67,0,1.84,1.84,0,1,1-3.67,0Z"/><path d="M98.15,682.2h5.17l2.46,14.4c.46,3,1,6.06,1.41,9.1h.17c.59-3,1.21-6.1,1.84-9.1l3.48-14.4h4.37l3.49,14.4c.62,2.95,1.25,6,1.87,9.1h.17l1.37-9.1,2.47-14.4h4.82l-5.45,28.5h-6.22l-3.52-15q-.7-3.32-1.25-6.55h-.18q-.57,3.24-1.28,6.55l-3.43,15h-6.12Z"/><path d="M135.22,679.92h5v8L140,692c1.79-1.69,3.9-3.24,6.81-3.24,4.56,0,6.56,3.1,6.56,8.51V710.7h-5V697.92c0-3.52-1-4.84-3.31-4.84-1.87,0-3.1.92-4.85,2.66v15h-5Z"/><path d="M158.27,705c0-4.59,3.78-7,12.52-7.92-.07-2.3-1-4.22-3.87-4.22a11.73,11.73,0,0,0-6,2.11l-1.84-3.34a16.56,16.56,0,0,1,8.74-2.81c5.32,0,7.94,3.29,7.94,9.26V710.7h-4.09l-.38-2.37h-.14a10.26,10.26,0,0,1-6.61,2.89A6,6,0,0,1,158.27,705Zm12.52,0v-4.81c-5.78.74-7.7,2.25-7.7,4.41,0,1.9,1.28,2.72,3.07,2.72S169.21,706.43,170.79,705Z"/><path d="M181.83,703.48V693.29h-3v-3.77l3.29-.23.59-5.84h4.15v5.84h5.42v4h-5.42v10.18c0,2.52,1,3.76,3,3.76a6.48,6.48,0,0,0,2.22-.49l.85,3.7a13.82,13.82,0,0,1-4.35.78C183.65,711.22,181.83,708.1,181.83,703.48Z"/><path d="M204.82,682.7a3.1,3.1,0,1,1,3.09,2.85A2.86,2.86,0,0,1,204.82,682.7Zm.58,6.59h5V710.7h-5Z"/><path d="M214.62,708.24l2.32-3.19a9.38,9.38,0,0,0,5.88,2.39c2.33,0,3.42-1.1,3.42-2.56,0-1.8-2.31-2.6-4.58-3.47-2.79-1.06-6-2.67-6-6.24s3-6.4,7.75-6.4a11.41,11.41,0,0,1,7.07,2.56l-2.28,3.09a8,8,0,0,0-4.67-1.87c-2.14,0-3.15,1-3.15,2.37,0,1.69,2.15,2.34,4.45,3.19,2.88,1.08,6.11,2.48,6.11,6.47,0,3.68-2.9,6.64-8.28,6.64A13.24,13.24,0,0,1,214.62,708.24Z"/><path d="M249.27,700.1l-8.54-17.9h5.38l3.09,7.29c.83,2.11,1.63,4.09,2.52,6.26h.17c.9-2.17,1.79-4.15,2.61-6.26l3.09-7.29h5.24l-8.54,17.9v10.6h-5Z"/><path d="M262.32,700c0-7.13,4.82-11.24,10.13-11.24s10.13,4.11,10.13,11.24-4.83,11.21-10.13,11.21S262.32,707.11,262.32,700Zm15.12,0c0-4.28-1.87-7.14-5-7.14s-5,2.86-5,7.14,1.87,7.12,5,7.12S277.44,704.3,277.44,700Z"/><path d="M287.52,689.29h4.09l.38,3.82h.14c1.52-2.79,3.77-4.34,6.05-4.34a5.35,5.35,0,0,1,2.41.44l-.87,4.35a7.12,7.12,0,0,0-2.18-.34c-1.7,0-3.75,1.16-5,4.42V710.7h-5Z"/><path d="M301.86,700c0-7.13,4.82-11.24,10.12-11.24s10.13,4.11,10.13,11.24-4.82,11.21-10.13,11.21S301.86,707.11,301.86,700ZM317,700c0-4.28-1.88-7.14-5-7.14s-5,2.86-5,7.14,1.87,7.12,5,7.12S317,704.3,317,700Z"/><path d="M324.87,689.52l3.12-.23h8.89v4h-12Zm2.86-2.44c0-4.44,2-7.69,7-7.69a10.9,10.9,0,0,1,3.91.75l-1,3.75a6,6,0,0,0-2.3-.51c-1.77,0-2.71,1.13-2.71,3.61V710.7h-5Z"/><path d="M340.61,705.19V679.92h5v25.53c0,1.24.56,1.68,1.08,1.68a2.83,2.83,0,0,0,.78-.09l.62,3.75a7,7,0,0,1-2.63.43C341.91,711.22,340.61,708.92,340.61,705.19Z"/><path d="M350.94,700c0-7.13,4.82-11.24,10.13-11.24S371.2,692.88,371.2,700s-4.82,11.21-10.13,11.21S350.94,707.11,350.94,700Zm15.13,0c0-4.28-1.88-7.14-5-7.14s-5,2.86-5,7.14,1.87,7.12,5,7.12S366.07,704.3,366.07,700Z"/><path d="M373.75,689.29h5l2.58,11.11c.42,2.07.73,4.08,1.11,6.17h.17c.42-2.09.84-4.15,1.36-6.17l2.79-11.11h4.52l2.85,11.11c.52,2.07.93,4.08,1.4,6.17h.18c.41-2.09.72-4.1,1.14-6.17l2.55-11.11h4.66l-5.39,21.41h-5.93l-2.5-10c-.45-2-.83-4-1.28-6.21h-.17c-.42,2.24-.78,4.24-1.27,6.25l-2.41,10h-5.76Z"/><path d="M417.61,688.54a3.26,3.26,0,0,0-3.53-3.46,6.07,6.07,0,0,0-4.46,2.24l-2.79-2.56a10.36,10.36,0,0,1,7.85-3.78c4.53,0,7.76,2.49,7.76,7.22,0,5.54-6.75,7.51-6.14,13.12h-4.39C411,695,417.61,692.48,417.61,688.54Zm-6.69,19.3a3.23,3.23,0,1,1,3.23,3.38A3.26,3.26,0,0,1,410.92,707.84Z"/><line class="cls-11" x1="577.96" y1="203.52" x2="577.96" y2="122.03"/><path d="M637.35,188l-2.68-12.5H620.9L618.15,188h-6.29l11.94-49.43h8.12L643.64,188Zm-9.6-44.77-5.72,27h11.51Z"/><path d="M652.56,185.39c-1.94-1.77-2.9-4.65-2.9-8.65V164q0-5.92,2.93-8.61c1.95-1.79,5-2.69,9.07-2.69h7.7V158H661a5.79,5.79,0,0,0-4,1.2,4.33,4.33,0,0,0-1.34,3.39v15.53a4.33,4.33,0,0,0,1.34,3.39,5.79,5.79,0,0,0,4,1.2h8.4V188h-7.7C657.52,188,654.48,187.15,652.56,185.39Z"/><path d="M679.5,185.39q-2.89-2.65-2.9-8.65V164q0-5.92,2.93-8.61c2-1.79,5-2.69,9.08-2.69h7.69V158h-8.4a5.74,5.74,0,0,0-3.95,1.2,4.3,4.3,0,0,0-1.35,3.39v15.53a4.3,4.3,0,0,0,1.35,3.39,5.74,5.74,0,0,0,3.95,1.2h8.4V188h-7.69C684.46,188,681.43,187.15,679.5,185.39Z"/><path d="M725.54,185.35c-1.95,1.79-5,2.69-9.07,2.69h-.92q-6.15,0-9.07-2.69c-2-1.78-2.93-4.66-2.93-8.61V164c0-3.95,1-6.82,2.93-8.61s5-2.69,9.07-2.69h.92c4.09,0,7.12.9,9.07,2.69s2.93,4.66,2.93,8.61v12.71C728.47,180.69,727.49,183.57,725.54,185.35Zm-4.41-26.12a5.79,5.79,0,0,0-4-1.2h-2.33a5.74,5.74,0,0,0-4,1.2,4.29,4.29,0,0,0-1.34,3.39v15.53a4.29,4.29,0,0,0,1.34,3.39,5.74,5.74,0,0,0,4,1.2h2.33a5.79,5.79,0,0,0,4-1.2,4.33,4.33,0,0,0,1.34-3.39V162.62A4.33,4.33,0,0,0,721.13,159.23Z"/><path d="M754.86,186.41a9.56,9.56,0,0,1-5.65,1.63h-1c-3.82,0-6.65-.9-8.51-2.69s-2.79-4.66-2.79-8.61v-24h6v25.42a4.26,4.26,0,0,0,4.59,4.59h2.4a4.48,4.48,0,0,0,3.36-1.13,4.2,4.2,0,0,0,1.23-2.54V152.73h6V188h-5.65Z"/><path d="M769.77,152.73h5.65v1.7a9,9,0,0,1,5.65-1.7h1.83q5.72,0,8.51,2.69T794.2,164v24h-6V162.62a4.26,4.26,0,0,0-4.59-4.59h-3.25a4.48,4.48,0,0,0-3.46,1.23,3.9,3.9,0,0,0-1.13,2.65V188h-6Z"/><path d="M807.14,185.71a9.42,9.42,0,0,1-1.91-6.15V158h-4.59v-5.3h4.59v-8.47h6v8.47h8.19V158h-8.19v21.89a2.7,2.7,0,0,0,.77,2.19,3.78,3.78,0,0,0,2.4.63h5V188h-6.78A6.72,6.72,0,0,1,807.14,185.71Z"/><path d="M843.13,185.85c-1.81,1.46-4.44,2.19-7.87,2.19h-9.11v-5.3H836a4.49,4.49,0,0,0,2.9-.81,2.88,2.88,0,0,0,1-2.37v-3.74c0-2.12-1-3.18-3-3.18h-1.2c-3.3,0-5.75-.71-7.38-2.15s-2.44-3.71-2.44-6.81v-2.05q0-4.73,2.69-6.81c1.79-1.39,4.42-2.09,7.91-2.09h8.05V158h-8.76a4.5,4.5,0,0,0-2.82.81,2.79,2.79,0,0,0-1.06,2.37v2.54a2.91,2.91,0,0,0,1,2.4,3.74,3.74,0,0,0,2.44.78h1q4.74,0,7.21,2.29c1.64,1.53,2.47,3.8,2.47,6.81v3.18Q845.85,183.67,843.13,185.85Z"/><path d="M1324.49,514.68h9.13c6.25,0,10.57,2.13,10.57,7.57a6.76,6.76,0,0,1-4.49,6.71v.19c3.67.73,6.25,3.16,6.25,7.39,0,6.07-4.78,9-11.63,9h-9.83Zm8.47,13.15c5.22,0,7.39-1.94,7.39-5.07,0-3.61-2.46-5-7.22-5h-4.73v10Zm.79,14.63c5.26,0,8.36-1.9,8.36-6.07,0-3.8-3-5.54-8.36-5.54h-5.35v11.61Z"/><path d="M1350,534.17c0-7.64,5-12,10.55-12s10.55,4.4,10.55,12-5,12-10.55,12S1350,541.75,1350,534.17Zm17.12,0c0-5.25-2.65-8.82-6.57-8.82s-6.57,3.57-6.57,8.82,2.66,8.75,6.57,8.75S1367.1,539.41,1367.1,534.17Z"/><path d="M1375,539.64c0-5,4.28-7.48,14-8.54,0-2.94-1-5.78-4.7-5.78a12.53,12.53,0,0,0-6.79,2.45l-1.51-2.65a16.61,16.61,0,0,1,9-3c5.55,0,7.9,3.71,7.9,9.41v14h-3.18l-.32-2.73h-.13c-2.17,1.81-4.71,3.3-7.53,3.3C1377.87,546.15,1375,543.77,1375,539.64Zm14,.36v-6.36c-7.63.92-10.21,2.8-10.21,5.73,0,2.6,1.76,3.66,4,3.66S1386.79,542,1389,540Z"/><path d="M1400,522.69h3.19l.32,4.17h.13c1.58-2.9,3.91-4.73,6.47-4.73a5.27,5.27,0,0,1,2.43.47l-.71,3.4a6.33,6.33,0,0,0-2.21-.38c-1.93,0-4.22,1.39-5.76,5.27v14.69H1400Z"/><path d="M1414.22,534.17c0-7.43,4.65-12,9.85-12,2.65,0,4.38,1,6.38,2.65l-.16-3.93V512h3.85v33.54H1431l-.33-2.7h-.13a10,10,0,0,1-6.91,3.27C1417.9,546.15,1414.22,541.8,1414.22,534.17Zm16.07,5.59v-12a8,8,0,0,0-5.56-2.38c-3.64,0-6.53,3.53-6.53,8.74,0,5.49,2.26,8.76,6.25,8.76C1426.55,542.89,1428.38,541.86,1430.29,539.76Z"/><g id="_Group_" data-name="&lt;Group&gt;"><path class="cls-12" d="M1266.52,524.47a.4.4,0,0,0,0-.57.41.41,0,0,0-.58,0l-1.76,1.75-.71-.63a.41.41,0,0,0-.58,0,.42.42,0,0,0,0,.58l1,.89a.43.43,0,0,0,.28.11.42.42,0,0,0,.29-.12Z"/><path class="cls-12" d="M1282.76,524.47a.4.4,0,0,0,0-.57.41.41,0,0,0-.58,0l-1.75,1.75-.72-.63a.41.41,0,1,0-.54.61l1,.89a.39.39,0,0,0,.27.11.42.42,0,0,0,.29-.12Z"/><path class="cls-12" d="M1299,544.26a.41.41,0,0,0-.58-.58l-1.76,1.76-.71-.64a.41.41,0,0,0-.58,0,.42.42,0,0,0,0,.58l1,.9a.43.43,0,0,0,.57,0Z"/><path class="cls-12" d="M1305.68,507.75V557.6h-49.45V507.75ZM1302,518.39a.4.4,0,0,0-.4-.41h-12.1v-6a.42.42,0,0,0-.41-.41.41.41,0,0,0-.41.41v6h-15.43v-6a.41.41,0,1,0-.81,0v6h-12.1a.41.41,0,1,0,0,.82h12.1v34.54a.41.41,0,1,0,.81,0V518.8h15.43v34.54a.41.41,0,0,0,.41.41.41.41,0,0,0,.41-.41V518.8h12.1a.4.4,0,0,0,.4-.41Zm-.55,29.68V541.9a.41.41,0,0,0-.41-.41h-7.67a.41.41,0,0,0-.41.41v6.17a.41.41,0,0,0,.41.41H1301A.41.41,0,0,0,1301.44,548.07Zm0-9.89V532a.41.41,0,0,0-.41-.41h-7.67a.41.41,0,0,0-.41.41v6.17a.41.41,0,0,0,.41.41H1301A.41.41,0,0,0,1301.44,538.18Zm0-9.9v-6.16a.41.41,0,0,0-.41-.41h-7.67a.41.41,0,0,0-.41.41v6.16a.41.41,0,0,0,.41.41H1301A.41.41,0,0,0,1301.44,528.28Zm-16.24,0v-6.16a.41.41,0,0,0-.41-.41h-7.67a.41.41,0,0,0-.41.41v6.16a.41.41,0,0,0,.41.41h7.68A.4.4,0,0,0,1285.2,528.28Zm-16.24,9.9V532a.41.41,0,0,0-.41-.41h-7.67a.41.41,0,0,0-.41.41v6.17a.41.41,0,0,0,.41.41h7.67A.41.41,0,0,0,1269,538.18Zm0-9.9v-6.16a.41.41,0,0,0-.41-.41h-7.67a.41.41,0,0,0-.41.41v6.16a.41.41,0,0,0,.41.41h7.67A.41.41,0,0,0,1269,528.28Z"/></g><path d="M804.49,518h-9.3v-3.33H817.7V518h-9.3v27.57h-3.91Z"/><path d="M818,539.64c0-5,4.28-7.48,14-8.54,0-2.94-1-5.78-4.7-5.78a12.5,12.5,0,0,0-6.79,2.45L819,525.12a16.57,16.57,0,0,1,8.94-3c5.56,0,7.91,3.71,7.91,9.41v14h-3.18l-.33-2.73h-.13c-2.17,1.81-4.7,3.3-7.53,3.3C820.87,546.15,818,543.77,818,539.64Zm14,.36v-6.36c-7.63.92-10.21,2.8-10.21,5.73,0,2.6,1.75,3.66,4,3.66S829.79,542,832,540Z"/><path d="M840.52,543l1.91-2.55a10.21,10.21,0,0,0,6.72,2.71c3,0,4.47-1.6,4.47-3.55,0-2.36-2.69-3.4-5.21-4.34-3.19-1.17-6.79-2.75-6.79-6.61,0-3.67,2.92-6.5,7.86-6.5a11.56,11.56,0,0,1,7.08,2.57l-1.85,2.48a8.54,8.54,0,0,0-5.19-2c-2.87,0-4.19,1.54-4.19,3.29,0,2.17,2.47,3,5,4,3.29,1.24,7,2.59,7,6.94,0,3.72-2.94,6.81-8.31,6.81A13.65,13.65,0,0,1,840.52,543Z"/><path d="M862.68,512h3.78v22.72h.13l9.72-12.07h4.28l-7.63,9.2,8.63,13.69h-4.22l-6.63-11-4.28,5v6h-3.78Z"/><path d="M883.33,543l1.9-2.55a10.25,10.25,0,0,0,6.72,2.71c3,0,4.47-1.6,4.47-3.55,0-2.36-2.68-3.4-5.2-4.34-3.19-1.17-6.79-2.75-6.79-6.61,0-3.67,2.91-6.5,7.85-6.5a11.53,11.53,0,0,1,7.08,2.57l-1.84,2.48a8.59,8.59,0,0,0-5.2-2c-2.86,0-4.19,1.54-4.19,3.29,0,2.17,2.48,3,5.06,4,3.28,1.24,6.94,2.59,6.94,6.94,0,3.72-2.93,6.81-8.31,6.81A13.62,13.62,0,0,1,883.33,543Z"/><path class="cls-12" d="M724.48,558.1V525.23a.44.44,0,1,0-.87,0v14.64l-.4-.08a4.25,4.25,0,0,1-3.57-4.11V521.62c0-2.49,2.43-3.66,4.52-4.2a26.28,26.28,0,0,1,13,0c2.07.52,4.51,1.72,4.51,4.2v14.06a4.25,4.25,0,0,1-3.57,4.11l-.39.08V525.23a.44.44,0,0,0-.44-.44.44.44,0,0,0-.44.44V558.1h-5.53V542.9a.44.44,0,0,0-.88,0v15.2ZM769.2,553l-.82.75a.93.93,0,0,1-.58.22.9.9,0,0,1-.61-.25l-2.43-2.44A.86.86,0,0,1,766,550l1.86,1.86,5.31-4.82a.85.85,0,0,1,1.21.06.86.86,0,0,1-.06,1.21l-1.48,1.34h0Zm-10.05-48.08h12.43v2.44l-3.72,3.37-1.28-1.28a1.72,1.72,0,0,0-2.43,2.43l2.43,2.44a1.74,1.74,0,0,0,1.22.5,1.7,1.7,0,0,0,1.15-.45l2.63-2.38v4.42H759.15ZM769.2,513l3.61-3.27h0l1.48-1.35a.86.86,0,1,0-1.15-1.27l-5.31,4.82L766,510a.86.86,0,0,0-1.21,0,.85.85,0,0,0,0,1.21l2.43,2.44a.85.85,0,0,0,.61.25.88.88,0,0,0,.58-.22Zm-10.05,11.94h12.43v2.43l-3.72,3.38-1.28-1.28a1.72,1.72,0,0,0-2.43,2.43l2.43,2.43a1.73,1.73,0,0,0,2.37.06l2.63-2.38v4.41H759.15ZM769.2,533l3.61-3.28h0l1.48-1.35a.86.86,0,0,0-1.15-1.27l-5.31,4.82L766,530a.86.86,0,0,0-1.21,1.22l2.43,2.43a.85.85,0,0,0,.61.25.88.88,0,0,0,.58-.22Zm-10.05,11.93v11.49h12.43V552L769,554.34a1.68,1.68,0,0,1-1.15.45,1.71,1.71,0,0,1-1.22-.51l-2.43-2.43a1.72,1.72,0,0,1,2.43-2.43l1.28,1.28,3.72-3.38v-2.43Zm-5.21-13.4a.86.86,0,1,0,0-1.72h-3.31V511.49h3.31a.86.86,0,1,0,0-1.72h-4.17a.87.87,0,0,0-.86.86v19.14h-2.08a.86.86,0,0,0,0,1.72h2.08v19.14a.87.87,0,0,0,.86.86h4.17a.86.86,0,1,0,0-1.71h-3.31V531.49ZM730.63,514.4a3.64,3.64,0,0,1-.87-.11A4.71,4.71,0,0,1,727,512.1a7.76,7.76,0,0,1-1.07-4c0-3,1.64-4.91,4.7-4.91s4.7,1.92,4.7,4.91a7.76,7.76,0,0,1-1.07,4,4.72,4.72,0,0,1-2.75,2.19A3.72,3.72,0,0,1,730.63,514.4Z"/><path d="M506.4,514.68h8.78c6.88,0,11.53,2.33,11.53,9.1,0,6.5-4.62,9.54-11.35,9.54h-5.05v12.26H506.4Zm8.47,15.45c5.38,0,7.94-2,7.94-6.35s-2.73-5.91-8.13-5.91h-4.37v12.26Z"/><path d="M532.56,522.69h3.18l.33,4.17h.13c1.58-2.9,3.91-4.73,6.47-4.73a5.27,5.27,0,0,1,2.43.47l-.72,3.4a6.29,6.29,0,0,0-2.21-.38c-1.92,0-4.22,1.39-5.76,5.27v14.69h-3.85Z"/><path d="M546.66,534.17c0-7.64,5-12,10.55-12s10.56,4.4,10.56,12-5,12-10.56,12S546.66,541.75,546.66,534.17Zm17.13,0c0-5.25-2.66-8.82-6.58-8.82s-6.57,3.57-6.57,8.82,2.66,8.75,6.57,8.75S563.79,539.41,563.79,534.17Z"/><path d="M572.06,534.17c0-7.64,5.14-12,11-12a9.52,9.52,0,0,1,6.66,2.69l-2,2.56a6.57,6.57,0,0,0-4.52-2c-4.12,0-7.14,3.57-7.14,8.82s2.85,8.75,7,8.75a8.19,8.19,0,0,0,5.35-2.28l1.67,2.6a11.07,11.07,0,0,1-7.37,2.91C576.68,546.15,572.06,541.75,572.06,534.17Z"/><path d="M592.42,534.17c0-7.45,5-12,10.24-12,5.8,0,9.08,4.19,9.08,10.74a12.43,12.43,0,0,1-.18,2.2H596.23c.27,4.85,3.22,8,7.56,8a9.93,9.93,0,0,0,5.67-1.83l1.38,2.54a13.29,13.29,0,0,1-7.52,2.38C597.25,546.15,592.42,541.69,592.42,534.17Zm15.92-1.87c0-4.59-2.05-7.09-5.62-7.09-3.2,0-6.06,2.59-6.53,7.09Z"/><path d="M614.8,543l1.9-2.55a10.25,10.25,0,0,0,6.73,2.71c3,0,4.47-1.6,4.47-3.55,0-2.36-2.69-3.4-5.21-4.34-3.19-1.17-6.79-2.75-6.79-6.61,0-3.67,2.92-6.5,7.86-6.5a11.56,11.56,0,0,1,7.08,2.57L629,527.18a8.59,8.59,0,0,0-5.19-2c-2.87,0-4.19,1.54-4.19,3.29,0,2.17,2.47,3,5,4,3.29,1.24,7,2.59,7,6.94,0,3.72-2.94,6.81-8.31,6.81A13.63,13.63,0,0,1,614.8,543Z"/><path d="M634.43,543l1.91-2.55a10.21,10.21,0,0,0,6.72,2.71c3,0,4.47-1.6,4.47-3.55,0-2.36-2.69-3.4-5.21-4.34-3.19-1.17-6.79-2.75-6.79-6.61,0-3.67,2.92-6.5,7.86-6.5a11.56,11.56,0,0,1,7.08,2.57l-1.85,2.48a8.54,8.54,0,0,0-5.19-2c-2.87,0-4.19,1.54-4.19,3.29,0,2.17,2.47,3,5,4,3.29,1.24,7,2.59,7,6.94,0,3.72-2.94,6.81-8.31,6.81A13.65,13.65,0,0,1,634.43,543Z"/><path class="cls-12" d="M435,524.68a1.58,1.58,0,0,0,.61.12,1.68,1.68,0,0,0,.62-.13l4.81-2a1.61,1.61,0,0,0-1.25-3l-1.17.5a23.06,23.06,0,0,1,43.44,3.51,1.61,1.61,0,0,0,1.56,1.2,1.37,1.37,0,0,0,.4,0,1.61,1.61,0,0,0,1.16-2A26.28,26.28,0,0,0,435.62,519l-.54-1.29a1.61,1.61,0,1,0-3,1.25l2,4.81a1.6,1.6,0,0,0,.88.87Z"/><path class="cls-12" d="M486.78,541.94l-2-4.82a1.6,1.6,0,0,0-2.1-.85l-4.82,2a1.61,1.61,0,0,0,1.25,3l1.35-.57a23.06,23.06,0,0,1-43.61-3.1,1.61,1.61,0,1,0-3.12.8,26.29,26.29,0,0,0,49.65,3.67l.47,1.13a1.62,1.62,0,0,0,1.48,1,1.61,1.61,0,0,0,1.48-2.23Z"/><circle class="cls-12" cx="459.45" cy="530.63" r="1.61"/><path class="cls-12" d="M472.38,534.65a4,4,0,0,0,0-8h-.31a12.76,12.76,0,0,0-.85-2.06l.21-.22a4,4,0,0,0,0-5.68,4,4,0,0,0-2.84-1.18,4,4,0,0,0-2.85,1.18l-.21.21a12.76,12.76,0,0,0-2.06-.85v-.31a4,4,0,1,0-8,0V518a12.76,12.76,0,0,0-2.06.85l-.22-.21a4,4,0,1,0-5.69,5.68l.22.22a12.8,12.8,0,0,0-.86,2.06h-.3a4,4,0,0,0,0,8h.3a12.8,12.8,0,0,0,.86,2.06l-.22.22a4,4,0,0,0,5.69,5.69l.22-.22a12.8,12.8,0,0,0,2.06.86v.3a4,4,0,0,0,8,0v-.3a12.8,12.8,0,0,0,2.06-.86l.21.22a4,4,0,0,0,2.85,1.17,4,4,0,0,0,2.84-6.86l-.21-.22a12.76,12.76,0,0,0,.85-2.06Zm-12.93.81a4.83,4.83,0,1,1,4.83-4.83A4.84,4.84,0,0,1,459.45,535.46Z"/><path d="M160.4,514.68h4l3.23,16.82c.59,3.32,1.2,6.65,1.79,10h.19c.68-3.32,1.42-6.66,2.16-10l4.27-16.82h3.55l4.26,16.82c.74,3.27,1.48,6.63,2.22,10h.19c.59-3.34,1.15-6.68,1.74-10l3.23-16.82H195l-6.36,30.9H184L179.32,527c-.53-2.42-1-4.66-1.48-7h-.18c-.48,2.38-1,4.62-1.54,7l-4.56,18.57h-4.64Z"/><path d="M198.31,534.17c0-7.64,5-12,10.55-12s10.55,4.4,10.55,12-5,12-10.55,12S198.31,541.75,198.31,534.17Zm17.12,0c0-5.25-2.65-8.82-6.57-8.82s-6.57,3.57-6.57,8.82,2.65,8.75,6.57,8.75S215.43,539.41,215.43,534.17Z"/><path d="M225.4,522.69h3.18l.33,4.17H229c1.58-2.9,3.91-4.73,6.47-4.73a5.27,5.27,0,0,1,2.43.47l-.72,3.4a6.29,6.29,0,0,0-2.21-.38c-1.92,0-4.22,1.39-5.76,5.27v14.69H225.4Z"/><path d="M241.66,512h3.79v22.72h.13l9.72-12.07h4.27l-7.63,9.2,8.63,13.69h-4.21l-6.64-11-4.27,5v6h-3.79Z"/><path d="M262.38,522.92l3.26-.23h8.51v3.16H262.38Zm3.09-3.84c0-4.65,2.11-7.61,6.67-7.61a10,10,0,0,1,3.78.79l-.81,3a6.11,6.11,0,0,0-2.58-.59c-2.15,0-3.21,1.51-3.21,4.46v26.49h-3.85Z"/><path d="M278.5,541V512h3.85v29.23c0,1.18.51,1.65,1.08,1.65a3.42,3.42,0,0,0,.84-.09l.52,3a6.33,6.33,0,0,1-2.22.36C279.69,546.15,278.5,544.3,278.5,541Z"/><path d="M288.75,534.17c0-7.64,5-12,10.55-12s10.56,4.4,10.56,12-5,12-10.56,12S288.75,541.75,288.75,534.17Zm17.12,0c0-5.25-2.65-8.82-6.57-8.82s-6.57,3.57-6.57,8.82,2.66,8.75,6.57,8.75S305.87,539.41,305.87,534.17Z"/><path d="M312.94,522.69h3.94l3.38,13.23c.49,2.17.91,4.23,1.35,6.38h.18c.5-2.15,1-4.24,1.55-6.38l3.52-13.23h3.76l3.55,13.23c.56,2.17,1.06,4.23,1.58,6.38h.19c.49-2.15.92-4.21,1.41-6.38l3.32-13.23h3.67l-6.11,22.89h-4.69l-3.28-12.3c-.56-2.16-1-4.27-1.54-6.59h-.19c-.49,2.32-.95,4.49-1.56,6.65l-3.19,12.24h-4.51Z"/><path d="M346.78,543l1.9-2.55a10.25,10.25,0,0,0,6.72,2.71c3,0,4.48-1.6,4.48-3.55,0-2.36-2.69-3.4-5.21-4.34-3.19-1.17-6.79-2.75-6.79-6.61,0-3.67,2.92-6.5,7.85-6.5a11.51,11.51,0,0,1,7.08,2.57L361,527.18a8.59,8.59,0,0,0-5.19-2c-2.87,0-4.2,1.54-4.2,3.29,0,2.17,2.48,3,5.06,4,3.28,1.24,6.94,2.59,6.94,6.94,0,3.72-2.93,6.81-8.3,6.81A13.63,13.63,0,0,1,346.78,543Z"/><g id="Line"><path class="cls-12" d="M139.71,508.89h-4.58a1.15,1.15,0,0,0,0,2.29h4.58a1.15,1.15,0,0,1,1.15,1.14v13.73a1.15,1.15,0,0,1-1.15,1.15H137.9l.33-.34a1.14,1.14,0,0,0-1.62-1.61l-2.28,2.28a1.15,1.15,0,0,0,0,1.62l2.28,2.29a1.14,1.14,0,0,0,1.62,0,1.27,1.27,0,0,0-.33-2h1.81a3.45,3.45,0,0,0,3.44-3.44V512.32a3.44,3.44,0,0,0-3.44-3.43Z"/><path class="cls-12" d="M100.81,529.49h4.57a1.15,1.15,0,0,0,0-2.29h-4.57a3.44,3.44,0,0,0-3.44,3.43v13.73a3.44,3.44,0,0,0,3.44,3.44h1.81l-.33.33a1.15,1.15,0,0,0,.8,2,1.13,1.13,0,0,0,.81-.33l2.29-2.29a1.16,1.16,0,0,0,.25-1.25,32.9,32.9,0,0,0-2.54-2.66,1.14,1.14,0,0,0-1.61,1.62l.33.34h-1.81a1.15,1.15,0,0,1-1.15-1.15V530.63A1.14,1.14,0,0,1,100.81,529.49Z"/><path class="cls-12" d="M129.41,503.17H111.1a3.44,3.44,0,0,0-3.43,3.43v6.87a3.44,3.44,0,0,0,3.43,3.43h8v4.58h-8a3.44,3.44,0,0,0-3.43,3.43v6.87a3.44,3.44,0,0,0,3.43,3.43h8v4.58h-8a3.44,3.44,0,0,0-3.43,3.43v6.86a3.44,3.44,0,0,0,3.43,3.44h18.31a3.44,3.44,0,0,0,3.44-3.44v-6.86a3.44,3.44,0,0,0-3.44-3.43h-8v-4.58h8a3.44,3.44,0,0,0,3.44-3.43v-6.87a3.44,3.44,0,0,0-3.44-3.43h-8V516.9h8a3.44,3.44,0,0,0,3.44-3.43V506.6A3.44,3.44,0,0,0,129.41,503.17Zm-16,3.43h10.3a1.15,1.15,0,0,1,0,2.29h-10.3A1.15,1.15,0,0,1,113.39,506.6Zm14.88,41.2a1.14,1.14,0,0,1-1.15,1.14H113.39a1.15,1.15,0,0,1,0-2.29h13.73A1.14,1.14,0,0,1,128.27,547.8Zm-4.58-4.58a1.15,1.15,0,0,1,0,2.29h-10.3a1.15,1.15,0,0,1,0-2.29Zm4.58-13.73a1.14,1.14,0,0,1-1.15,1.14H113.39a1.15,1.15,0,0,1,0-2.29h13.73A1.14,1.14,0,0,1,128.27,529.49Zm-4.58-4.58a1.15,1.15,0,0,1,0,2.29h-10.3a1.15,1.15,0,0,1,0-2.29Zm3.43-12.59H113.39a1.15,1.15,0,0,1,0-2.29h13.73A1.15,1.15,0,0,1,127.12,512.32Z"/></g><path d="M1035.17,514.68H1044c6.89,0,11.54,2.33,11.54,9.1,0,6.5-4.63,9.54-11.35,9.54h-5.06v12.26h-3.91Zm8.48,15.45c5.37,0,7.94-2,7.94-6.35s-2.73-5.91-8.13-5.91h-4.38v12.26Z"/><path d="M1061.33,522.69h3.19l.32,4.17h.13c1.59-2.9,3.91-4.73,6.48-4.73a5.33,5.33,0,0,1,2.43.47l-.72,3.4a6.33,6.33,0,0,0-2.21-.38c-1.92,0-4.22,1.39-5.76,5.27v14.69h-3.86Z"/><path d="M1075.44,534.17c0-7.64,5-12,10.55-12s10.55,4.4,10.55,12-5,12-10.55,12S1075.44,541.75,1075.44,534.17Zm17.12,0c0-5.25-2.65-8.82-6.57-8.82s-6.57,3.57-6.57,8.82,2.65,8.75,6.57,8.75S1092.56,539.41,1092.56,534.17Z"/><path d="M1096.84,555.21l.75-3a7.23,7.23,0,0,0,2.16.4c2.28,0,2.82-1.72,2.82-4.5V522.69h3.85v25.48c0,4.68-1.71,7.63-6.25,7.63A9.29,9.29,0,0,1,1096.84,555.21Zm5-39.72a2.66,2.66,0,0,1,5.32,0,2.67,2.67,0,0,1-5.32,0Z"/><path d="M1112.41,534.17c0-7.45,5-12,10.24-12,5.8,0,9.08,4.19,9.08,10.74a12.43,12.43,0,0,1-.18,2.2h-15.33c.27,4.85,3.22,8,7.56,8a9.93,9.93,0,0,0,5.67-1.83l1.38,2.54a13.29,13.29,0,0,1-7.52,2.38C1117.24,546.15,1112.41,541.69,1112.41,534.17Zm15.92-1.87c0-4.59-2-7.09-5.62-7.09-3.2,0-6.06,2.59-6.53,7.09Z"/><path d="M1135.63,534.17c0-7.64,5.13-12,10.95-12a9.52,9.52,0,0,1,6.66,2.69l-2,2.56a6.56,6.56,0,0,0-4.52-2c-4.12,0-7.14,3.57-7.14,8.82s2.85,8.75,7,8.75a8.17,8.17,0,0,0,5.35-2.28l1.67,2.6a11.06,11.06,0,0,1-7.36,2.91C1140.25,546.15,1135.63,541.75,1135.63,534.17Z"/><path d="M1158.86,538.51V525.85h-3.38v-2.93l3.56-.23.46-6.42h3.22v6.42h6.17v3.16h-6.17v12.72c0,2.8.89,4.42,3.52,4.42a7.49,7.49,0,0,0,2.59-.61l.75,2.92a13.61,13.61,0,0,1-4.23.85C1160.5,546.15,1158.86,543.06,1158.86,538.51Z"/><path d="M1171,543l1.9-2.55a10.25,10.25,0,0,0,6.72,2.71c3,0,4.48-1.6,4.48-3.55,0-2.36-2.69-3.4-5.21-4.34-3.19-1.17-6.79-2.75-6.79-6.61,0-3.67,2.92-6.5,7.85-6.5a11.51,11.51,0,0,1,7.08,2.57l-1.84,2.48a8.59,8.59,0,0,0-5.19-2c-2.87,0-4.2,1.54-4.2,3.29,0,2.17,2.48,3,5.06,4,3.28,1.24,6.94,2.59,6.94,6.94,0,3.72-2.93,6.81-8.31,6.81A13.62,13.62,0,0,1,1171,543Z"/><path class="cls-12" d="M1008,532.62a.85.85,0,0,0-1.53.4l-.48,3.33a.5.5,0,0,1,0,.13,15,15,0,0,0,2.1-3.8Z"/><path class="cls-12" d="M1005.17,537.09h-.12l-5.1-.73a.85.85,0,0,1-.73-1h0l.48-3.34a.86.86,0,0,0-1.37-.8l-2.69,2a.87.87,0,0,1-1.21-.17h0L991.35,529a.85.85,0,0,1,.17-1.2l2.69-2a.85.85,0,0,0-.39-1.53l-3.34-.48a.86.86,0,0,1-.73-1h0l.73-5.1a.86.86,0,0,1,1-.73h0l3.34.48a.85.85,0,0,0,.86-.41.86.86,0,0,0,0-1l-2-2.69a.85.85,0,0,1,.17-1.2l.49-.37a14.45,14.45,0,0,0-2.37.07,15.44,15.44,0,0,0-6.57,28.35,4.93,4.93,0,0,1,2.32,4.13v3.47a2.58,2.58,0,0,0,2.58,2.57h6.86a2.57,2.57,0,0,0,2.58-2.57v-3.4a5.08,5.08,0,0,1,2.38-4.23,15.41,15.41,0,0,0,3.58-3.21A.83.83,0,0,1,1005.17,537.09ZM994.49,547.8h-1.72v-2.58h1.72Zm-1.72-4.3a5.47,5.47,0,0,0-3.52-5.11,12,12,0,0,1-2-21.36l.91,1.45a10.31,10.31,0,0,0,1.73,18.31,7.19,7.19,0,0,1,4.62,6.71Z"/><path class="cls-12" d="M990.2,554.66v.86a1.72,1.72,0,0,0,1.72,1.72h3.43a1.71,1.71,0,0,0,1.71-1.72v-.86Z"/><path class="cls-12" d="M984.83,540.93a15.64,15.64,0,0,1-1.46-1.07,5.14,5.14,0,1,1-5.19-7.47,15.37,15.37,0,0,1-.68-2.91l-.15.71a1.72,1.72,0,0,1-2,1.33,2,2,0,0,1-.62-.26L972.91,530l-1.57,1.56,1.23,1.79a1.7,1.7,0,0,1-.44,2.38,1.65,1.65,0,0,1-.62.27l-2.14.45v2l2.14.45a1.72,1.72,0,0,1,1.33,2,1.77,1.77,0,0,1-.27.63l-1.23,1.77,1.57,1.56,1.78-1.23a1.73,1.73,0,0,1,2.39.44,1.8,1.8,0,0,1,.27.62l.45,2.15h2l.45-2.14a1.71,1.71,0,0,1,2-1.33,1.8,1.8,0,0,1,.62.27l1.78,1.22,1.84-1.84A4.17,4.17,0,0,0,984.83,540.93Z"/><rect class="cls-12" x="990.2" y="551.23" width="6.87" height="1.72"/><path class="cls-12" d="M1015.06,522a2.57,2.57,0,0,1-2.18-2.91,2.53,2.53,0,0,1,1-1.7l2-1.51-2.06-2.74-2,1.5a2.57,2.57,0,0,1-4.09-2.42l.35-2.48-3.4-.49-.35,2.49a2.57,2.57,0,0,1-2.91,2.18,2.53,2.53,0,0,1-1.7-1l-1.51-2L995.46,513l1.51,2a2.57,2.57,0,0,1-2.42,4.09l-2.49-.36-.49,3.4,2.49.36a2.57,2.57,0,0,1,1.18,4.61l-2,1.51,2.06,2.74,2-1.51a2.58,2.58,0,0,1,4.1,2.43l-.36,2.49,3.41.48.35-2.48a2.57,2.57,0,0,1,4.61-1.18l1.51,2,2.74-2.06-1.51-2a2.57,2.57,0,0,1,.52-3.6,2.54,2.54,0,0,1,1.9-.49l2.49.35.49-3.39Zm-10.5,5.38a5.15,5.15,0,1,1,5.15-5.15A5.15,5.15,0,0,1,1004.56,527.42Z"/><rect class="cls-12" x="1009.94" y="539.21" width="6.01" height="1.72"/><rect class="cls-12" x="1010.8" y="543.16" width="1.72" height="6.7" transform="translate(-55.78 973.94) rotate(-50.2)"/><rect class="cls-12" x="1004.79" y="546.08" width="1.72" height="6.01"/><rect class="cls-12" x="968.64" y="521.19" width="7.08" height="1.72" transform="translate(-97.58 251.35) rotate(-14.03)"/><rect class="cls-12" x="972.6" y="511.06" width="1.72" height="7.38" transform="translate(-11.22 1007.71) rotate(-54.46)"/><rect class="cls-12" x="978.16" y="507.35" width="1.72" height="7.09" transform="translate(-96.04 258.43) rotate(-14.34)"/><line class="cls-13" x1="97.37" y1="752.85" x2="436.06" y2="752.85"/><path d="M103.91,813.94l-6.45-12.86h1.6l3.27,6.77c.75,1.58,1.45,3.08,2.27,4.67h.13c.82-1.59,1.64-3.09,2.34-4.67l3.27-6.77h1.53l-6.46,12.86v8.76h-1.5Z"/><path d="M112.57,814.85c0-5.26,3.27-8.3,7-8.3s7,3,7,8.3-3.27,8.25-7,8.25S112.57,820.06,112.57,814.85Zm12.56,0c0-4.14-2.36-7-5.53-7s-5.52,2.88-5.52,7,2.36,7,5.52,7S125.13,819,125.13,814.85Z"/><path d="M131.34,807h1.22l.16,2.94h.07c1.06-1.94,2.59-3.34,4.46-3.34a3.31,3.31,0,0,1,1.55.33l-.33,1.32a3.44,3.44,0,0,0-1.41-.27c-1.41,0-3.08,1.08-4.28,4.06V822.7h-1.44Z"/><path d="M140.05,814.85c0-5.26,3.27-8.3,7-8.3s7,3,7,8.3-3.27,8.25-7,8.25S140.05,820.06,140.05,814.85Zm12.56,0c0-4.14-2.36-7-5.53-7s-5.52,2.88-5.52,7,2.36,7,5.52,7S152.61,819,152.61,814.85Z"/><path d="M156.85,807.09,159,807h5v1.27h-7.22Zm2.15-3.65c0-3.12,1.4-4.73,3.88-4.73a5.83,5.83,0,0,1,2.28.53l-.39,1.18a4.2,4.2,0,0,0-1.87-.45c-1.69,0-2.46,1.29-2.46,3.57V822.7H159Z"/><path d="M167.36,820.59V799.1h1.44v21.69c0,.7.29,1,.68,1a2.31,2.31,0,0,0,.59-.07l.24,1.18a3.07,3.07,0,0,1-1,.17C168,823.1,167.36,822.32,167.36,820.59Z"/><path d="M173.77,814.85c0-5.26,3.27-8.3,7-8.3s7,3,7,8.3-3.27,8.25-7,8.25S173.77,820.06,173.77,814.85Zm12.56,0c0-4.14-2.36-7-5.52-7s-5.53,2.88-5.53,7,2.36,7,5.53,7S186.33,819,186.33,814.85Z"/><path d="M190.28,807h1.56l2.82,10.19c.38,1.47.75,2.81,1.07,4.22h.13c.38-1.41.76-2.76,1.15-4.22L199.86,807h1.71l2.86,10.19c.39,1.47.77,2.81,1.15,4.22h.13c.38-1.41.75-2.75,1.13-4.22L209.61,807h1.45l-4.48,15.75h-1.89l-2.76-9.78c-.44-1.51-.76-3-1.2-4.5h-.13c-.38,1.54-.75,3.05-1.24,4.56l-2.7,9.72h-1.75Z"/><path d="M221.3,801.86a1.31,1.31,0,0,1,2.62,0,1.31,1.31,0,0,1-2.62,0Zm.56,5.09h1.44V822.7h-1.44Z"/><path d="M227.37,820.92l.84-1.06a7.2,7.2,0,0,0,5,2c2.46,0,3.74-1.45,3.74-3.11,0-2-2-2.85-3.84-3.5-2.36-.84-5-1.81-5-4.5,0-2.27,1.79-4.2,5.05-4.2a7.3,7.3,0,0,1,4.48,1.64l-.78,1a6,6,0,0,0-3.74-1.43c-2.44,0-3.55,1.41-3.55,2.86,0,1.8,1.85,2.48,3.72,3.19,2.43.93,5.12,1.73,5.12,4.8,0,2.38-1.89,4.45-5.29,4.45A8.92,8.92,0,0,1,227.37,820.92Z"/><path d="M248.43,818.78c0-3.5,3.14-5.16,10.11-5.94,0-2.42-.61-5-3.69-5a8.57,8.57,0,0,0-5,1.85l-.67-1.08a10.46,10.46,0,0,1,5.83-2.05c3.71,0,5,2.71,5,6.09V822.7h-1.22l-.16-2h-.07A9.28,9.28,0,0,1,253,823.1C250.5,823.1,248.43,821.74,248.43,818.78Zm10.11.52v-5.36c-6.43.75-8.63,2.25-8.63,4.77,0,2.26,1.52,3.13,3.32,3.13S256.61,821,258.54,819.3Z"/><path d="M272.59,807h1.22l.16,2H274c1.53-1.23,3.39-2.38,5.32-2.38,4.2,0,6.27,3.17,6.27,8,0,5.35-3.21,8.51-6.9,8.51a8.17,8.17,0,0,1-4.72-1.94l0,2.91v5.76h-1.44Zm11.53,7.65c0-3.87-1.37-6.76-5-6.76-1.55,0-3.2.92-5.1,2.6v9.34a7.58,7.58,0,0,0,4.62,2C281.83,821.81,284.12,818.87,284.12,814.6Z"/><path d="M289,814.85c0-5.26,3.27-8.3,7-8.3s7,3,7,8.3-3.27,8.25-7,8.25S289,820.06,289,814.85Zm12.56,0c0-4.14-2.35-7-5.52-7s-5.52,2.88-5.52,7,2.36,7,5.52,7S301.58,819,301.58,814.85Z"/><path d="M305.54,807h1.55l2.83,10.19c.38,1.47.74,2.81,1.06,4.22h.13c.38-1.41.76-2.76,1.15-4.22L315.11,807h1.71l2.86,10.19c.4,1.47.77,2.81,1.16,4.22H321c.38-1.41.74-2.75,1.12-4.22L324.86,807h1.46l-4.49,15.75H320l-2.77-9.78c-.43-1.51-.75-3-1.19-4.5h-.13c-.38,1.54-.75,3.05-1.25,4.56l-2.69,9.72h-1.76Z"/><path d="M328.75,814.85c0-5.13,3.33-8.3,6.84-8.3,3.71,0,6,2.66,6,7.3a6.75,6.75,0,0,1-.08,1.18H330.24c.05,4,2.37,6.81,5.9,6.81a7.08,7.08,0,0,0,4.21-1.39l.59,1.1A8.56,8.56,0,0,1,336,823.1C332,823.1,328.75,820,328.75,814.85Zm11.48-1c0-4-1.81-6-4.63-6-2.65,0-5,2.26-5.37,6Z"/><path d="M345.83,807h1.22l.16,2.94h.07c1.06-1.94,2.59-3.34,4.46-3.34a3.31,3.31,0,0,1,1.55.33L353,808.2a3.44,3.44,0,0,0-1.41-.27c-1.41,0-3.08,1.08-4.28,4.06V822.7h-1.44Z"/><path d="M354.24,807.09l2.19-.14h5v1.27h-7.22Zm2.16-3.65c0-3.12,1.39-4.73,3.87-4.73a5.88,5.88,0,0,1,2.29.53l-.39,1.18a4.2,4.2,0,0,0-1.87-.45c-1.69,0-2.46,1.29-2.46,3.57V822.7H356.4Z"/><path d="M364.51,817.05V807H366v9.91c0,3.34,1.05,4.93,3.57,4.93,1.87,0,3.22-1,5.06-3.21V807H376V822.7H374.8l-.16-2.64h-.07c-1.54,1.82-3.16,3-5.32,3C366,823.1,364.51,821.12,364.51,817.05Z"/><path d="M382,820.59V799.1h1.45v21.69c0,.7.28,1,.68,1a2.29,2.29,0,0,0,.58-.07l.24,1.18a3.06,3.06,0,0,1-1,.17C382.69,823.1,382,822.32,382,820.59Z"/><path d="M394.55,807h1.55l2.83,10.19c.37,1.47.74,2.81,1.06,4.22h.13c.38-1.41.76-2.76,1.15-4.22L404.12,807h1.71l2.86,10.19c.39,1.47.77,2.81,1.16,4.22H410c.38-1.41.74-2.75,1.12-4.22L413.87,807h1.45l-4.48,15.75H409l-2.76-9.78c-.44-1.51-.76-3-1.19-4.5h-.13c-.38,1.54-.75,3.05-1.25,4.56l-2.7,9.72h-1.75Z"/><path d="M417.76,814.85c0-5.13,3.33-8.3,6.84-8.3,3.71,0,6,2.66,6,7.3a6.77,6.77,0,0,1-.09,1.18H419.24c.06,4,2.37,6.81,5.91,6.81a7.08,7.08,0,0,0,4.21-1.39l.59,1.1A8.56,8.56,0,0,1,425,823.1C421,823.1,417.76,820,417.76,814.85Zm11.48-1c0-4-1.82-6-4.63-6-2.65,0-5.05,2.26-5.37,6Z"/><path d="M436.27,821.11h-.07L436,822.7h-1.2V799.1h1.44V806l-.07,3.07a8.91,8.91,0,0,1,5.39-2.47c4.21,0,6.28,3.17,6.28,8,0,5.35-3.21,8.51-6.91,8.51A7.94,7.94,0,0,1,436.27,821.11Zm10.1-6.51c0-3.87-1.38-6.76-5-6.76-1.56,0-3.27.92-5.1,2.6v9.34a7.45,7.45,0,0,0,4.62,2C444.08,821.81,446.37,818.87,446.37,814.6Z"/><path d="M451.13,813.88h7.17v1.28h-7.17Z"/><path d="M463.94,821.11h-.07l-.17,1.59h-1.2V799.1H464V806l-.08,3.07a8.94,8.94,0,0,1,5.4-2.47c4.2,0,6.28,3.17,6.28,8,0,5.35-3.22,8.51-6.91,8.51A7.92,7.92,0,0,1,463.94,821.11ZM474,814.6c0-3.87-1.37-6.76-5-6.76-1.55,0-3.26.92-5.09,2.6v9.34a7.42,7.42,0,0,0,4.61,2C471.75,821.81,474,818.87,474,814.6Z"/><path d="M478.59,818.78c0-3.5,3.14-5.16,10.11-5.94,0-2.42-.62-5-3.7-5a8.57,8.57,0,0,0-5,1.85l-.67-1.08a10.49,10.49,0,0,1,5.83-2.05c3.72,0,5,2.71,5,6.09V822.7h-1.22l-.16-2h-.07a9.25,9.25,0,0,1-5.56,2.44C480.65,823.1,478.59,821.74,478.59,818.78Zm10.11.52v-5.36c-6.44.75-8.64,2.25-8.64,4.77,0,2.26,1.52,3.13,3.32,3.13S486.76,821,488.7,819.3Z"/><path d="M493.78,820.92l.84-1.06a7.2,7.2,0,0,0,5,2c2.46,0,3.74-1.45,3.74-3.11,0-2-2-2.85-3.84-3.5-2.36-.84-5-1.81-5-4.5,0-2.27,1.79-4.2,5.05-4.2a7.3,7.3,0,0,1,4.48,1.64l-.78,1a6,6,0,0,0-3.74-1.43c-2.44,0-3.55,1.41-3.55,2.86,0,1.8,1.85,2.48,3.72,3.19,2.43.93,5.12,1.73,5.12,4.8,0,2.38-1.89,4.45-5.29,4.45A8.92,8.92,0,0,1,493.78,820.92Z"/><path d="M507.64,814.85c0-5.13,3.32-8.3,6.83-8.3,3.72,0,6,2.66,6,7.3a6.75,6.75,0,0,1-.08,1.18H509.12c.05,4,2.37,6.81,5.9,6.81a7.06,7.06,0,0,0,4.21-1.39l.59,1.1a8.56,8.56,0,0,1-4.94,1.55C510.88,823.1,507.64,820,507.64,814.85Zm11.47-1c0-4-1.81-6-4.63-6-2.65,0-5,2.26-5.37,6Z"/><path d="M523.41,814.85c0-5.08,3.21-8.3,7-8.3a7.17,7.17,0,0,1,4.72,1.94L535,805.6v-6.5h1.44v23.6h-1.22l-.16-2H535a7.38,7.38,0,0,1-5.11,2.44C526,823.1,523.41,820.17,523.41,814.85Zm11.6,4.36v-9.34a6.57,6.57,0,0,0-4.57-2c-3.12,0-5.52,3.06-5.52,7,0,4.19,1.85,7,5.18,7C531.83,821.81,533.36,820.9,535,819.21Z"/><path d="M541,826.8a4.51,4.51,0,0,0,2.51-4.07l-.42-2,1.17,1.54a1.21,1.21,0,0,1-1.13.53,1.29,1.29,0,0,1-1.38-1.37,1.33,1.33,0,0,1,1.39-1.37c1,0,1.67.9,1.67,2.34a6.06,6.06,0,0,1-3.35,5.35Z"/><path d="M556.07,801.86a1.31,1.31,0,0,1,2.62,0,1.31,1.31,0,0,1-2.62,0Zm.56,5.09h1.44V822.7h-1.44Z"/><path d="M564.09,807h1.22l.16,2.44h.07c1.6-1.6,3.23-2.84,5.39-2.84,3.24,0,4.74,2,4.74,6.05v10.1h-1.44v-9.91c0-3.34-1.06-4.93-3.57-4.93-1.87,0-3.22,1-5.13,3V822.7h-1.44Z"/><path d="M581.8,818.35V808.22h-2.45v-1.13l2.48-.14.19-4.56h1.23V807h4.54v1.27h-4.54v10.24c0,2,.5,3.37,2.66,3.37a5.56,5.56,0,0,0,2-.5l.38,1.18a9,9,0,0,1-2.56.59C582.68,823.1,581.8,821.17,581.8,818.35Z"/><path d="M591.36,817.05V807h1.45v9.91c0,3.34,1.05,4.93,3.57,4.93,1.86,0,3.22-1,5-3.21V807h1.44V822.7h-1.22l-.15-2.64h-.08c-1.54,1.82-3.16,3-5.32,3C592.87,823.1,591.36,821.12,591.36,817.05Z"/><path d="M608.33,801.86a1.31,1.31,0,0,1,2.62,0,1.31,1.31,0,0,1-2.62,0Zm.56,5.09h1.44V822.7h-1.44Z"/><path d="M616.71,818.35V808.22h-2.44v-1.13l2.48-.14.18-4.56h1.23V807h4.54v1.27h-4.54v10.24c0,2,.5,3.37,2.66,3.37a5.56,5.56,0,0,0,2-.5l.38,1.18a9,9,0,0,1-2.56.59C617.59,823.1,616.71,821.17,616.71,818.35Z"/><path d="M626,801.86a1.32,1.32,0,0,1,2.63,0,1.32,1.32,0,0,1-2.63,0Zm.56,5.09H628V822.7h-1.45Z"/><path d="M631.37,807h1.55l3.53,9.87c.51,1.52,1.08,3.11,1.59,4.52h.13c.51-1.41,1.07-3,1.58-4.52l3.53-9.87h1.47L639,822.7h-1.7Z"/><path d="M646.8,814.85c0-5.13,3.32-8.3,6.84-8.3,3.71,0,6,2.66,6,7.3a6.77,6.77,0,0,1-.09,1.18H648.28c.06,4,2.37,6.81,5.9,6.81a7.09,7.09,0,0,0,4.22-1.39l.59,1.1a8.56,8.56,0,0,1-4.94,1.55C650.05,823.1,646.8,820,646.8,814.85Zm11.48-1c0-4-1.82-6-4.63-6-2.65,0-5,2.26-5.37,6Z"/><path d="M662.43,826.8a4.49,4.49,0,0,0,2.51-4.07l-.41-2,1.16,1.54a1.2,1.2,0,0,1-1.13.53,1.29,1.29,0,0,1-1.38-1.37,1.33,1.33,0,0,1,1.4-1.37c1,0,1.66.9,1.66,2.34a6.06,6.06,0,0,1-3.35,5.35Z"/><path d="M678,807h1.22l.16,2.44h.07c1.6-1.6,3.23-2.84,5.39-2.84,3.24,0,4.74,2,4.74,6.05v10.1h-1.44v-9.91c0-3.34-1-4.93-3.57-4.93-1.87,0-3.22,1-5.13,3V822.7H678Z"/><path d="M694.07,814.85c0-5.26,3.27-8.3,7-8.3s7,3,7,8.3-3.27,8.25-7,8.25S694.07,820.06,694.07,814.85Zm12.56,0c0-4.14-2.36-7-5.52-7s-5.53,2.88-5.53,7,2.36,7,5.53,7S706.63,819,706.63,814.85Z"/><path d="M711.44,813.88h7.17v1.28h-7.17Z"/><path d="M721.56,814.85c0-5.26,3.35-8.3,7.16-8.3a6.42,6.42,0,0,1,4.59,2l-.85,1a5.32,5.32,0,0,0-3.71-1.68c-3.2,0-5.67,2.88-5.67,7s2.25,7,5.65,7a6.23,6.23,0,0,0,4.2-1.82l.75,1a7.48,7.48,0,0,1-5,2.08C724.62,823.1,721.56,820.06,721.56,814.85Z"/><path d="M735.65,814.85c0-5.26,3.27-8.3,7-8.3s7,3,7,8.3-3.27,8.25-7,8.25S735.65,820.06,735.65,814.85Zm12.56,0c0-4.14-2.36-7-5.53-7s-5.52,2.88-5.52,7,2.36,7,5.52,7S748.21,819,748.21,814.85Z"/><path d="M753.11,814.85c0-5.08,3.21-8.3,6.95-8.3a7.22,7.22,0,0,1,4.73,1.94l-.08-2.89v-6.5h1.44v23.6h-1.22l-.15-2h-.07a7.39,7.39,0,0,1-5.12,2.44C755.66,823.1,753.11,820.17,753.11,814.85Zm11.6,4.36v-9.34a6.55,6.55,0,0,0-4.57-2c-3.11,0-5.51,3.06-5.51,7,0,4.19,1.85,7,5.17,7C761.53,821.81,763.07,820.9,764.71,819.21Z"/><path d="M770.85,814.85c0-5.13,3.32-8.3,6.84-8.3,3.71,0,6,2.66,6,7.3a6.77,6.77,0,0,1-.09,1.18H772.33c.06,4,2.37,6.81,5.9,6.81a7.09,7.09,0,0,0,4.22-1.39l.59,1.1a8.56,8.56,0,0,1-4.94,1.55C774.1,823.1,770.85,820,770.85,814.85Zm11.48-1c0-4-1.82-6-4.63-6-2.65,0-5.05,2.26-5.37,6Z"/><path d="M792.84,801.08h1.58l2.7,12.75c.49,2.34,1,4.69,1.48,7h.13c.51-2.35,1.08-4.7,1.64-7l3.38-12.75h1.53l3.37,12.75c.57,2.33,1.14,4.69,1.71,7h.13c.49-2.35.93-4.7,1.42-7l2.7-12.75h1.48l-4.82,21.62h-1.65l-3.93-14.84c-.38-1.7-.76-3.18-1.13-4.87h-.13c-.38,1.69-.81,3.17-1.2,4.87l-3.85,14.84h-1.64Z"/><path d="M818.75,814.85c0-5.26,3.27-8.3,7-8.3s7,3,7,8.3-3.27,8.25-7,8.25S818.75,820.06,818.75,814.85Zm12.56,0c0-4.14-2.36-7-5.53-7s-5.52,2.88-5.52,7,2.36,7,5.52,7S831.31,819,831.31,814.85Z"/><path d="M837.52,807h1.22l.16,2.94H839c1.06-1.94,2.59-3.34,4.46-3.34a3.33,3.33,0,0,1,1.55.33l-.33,1.32a3.48,3.48,0,0,0-1.41-.27c-1.41,0-3.08,1.08-4.28,4.06V822.7h-1.44Z"/><path d="M847.87,799.1h1.43v17.4h.07l7.74-9.55h1.66l-5.1,6.23,6,9.52H858l-5.2-8.44-3.52,4.15v4.29h-1.43Z"/><path d="M861.06,807.09l2.19-.14h5v1.27h-7.22Zm2.15-3.65c0-3.12,1.4-4.73,3.88-4.73a5.88,5.88,0,0,1,2.29.53l-.39,1.18a4.2,4.2,0,0,0-1.87-.45c-1.69,0-2.46,1.29-2.46,3.57V822.7h-1.45Z"/><path d="M871.58,820.59V799.1H873v21.69c0,.7.29,1,.68,1a2.29,2.29,0,0,0,.58-.07l.25,1.18a3.17,3.17,0,0,1-1,.17C872.23,823.1,871.58,822.32,871.58,820.59Z"/><path d="M878,814.85c0-5.26,3.27-8.3,7-8.3s7,3,7,8.3-3.27,8.25-7,8.25S878,820.06,878,814.85Zm12.56,0c0-4.14-2.35-7-5.52-7s-5.52,2.88-5.52,7,2.36,7,5.52,7S890.54,819,890.54,814.85Z"/><path d="M894.5,807h1.55l2.83,10.19c.38,1.47.74,2.81,1.06,4.22h.13c.38-1.41.76-2.76,1.15-4.22L904.07,807h1.71l2.86,10.19c.4,1.47.77,2.81,1.16,4.22h.13c.38-1.41.74-2.75,1.12-4.22L913.82,807h1.46l-4.49,15.75h-1.88l-2.77-9.78c-.43-1.51-.75-3-1.19-4.5h-.13c-.38,1.54-.75,3.05-1.25,4.56l-2.69,9.72h-1.76Z"/><path d="M930.91,801.08h1.5L940,822.7h-1.6L934.1,810c-.88-2.56-1.63-4.83-2.39-7.46h-.13c-.75,2.63-1.51,4.9-2.38,7.46l-4.36,12.73h-1.51ZM926.79,814h9.64v1.26h-9.64Z"/><path d="M942.71,817.05V807h1.45v9.91c0,3.34,1.05,4.93,3.57,4.93,1.86,0,3.22-1,5-3.21V807h1.44V822.7H953l-.15-2.64h-.08c-1.54,1.82-3.16,3-5.32,3C944.22,823.1,942.71,821.12,942.71,817.05Z"/><path d="M960.6,818.35V808.22h-2.44v-1.13l2.48-.14.18-4.56h1.23V807h4.54v1.27h-4.54v10.24c0,2,.5,3.37,2.66,3.37a5.56,5.56,0,0,0,2-.5l.38,1.18a9,9,0,0,1-2.55.59C961.49,823.1,960.6,821.17,960.6,818.35Z"/><path d="M968.74,814.85c0-5.26,3.27-8.3,7-8.3s7,3,7,8.3-3.27,8.25-7,8.25S968.74,820.06,968.74,814.85Zm12.55,0c0-4.14-2.35-7-5.52-7s-5.52,2.88-5.52,7,2.36,7,5.52,7S981.29,819,981.29,814.85Z"/><path d="M987.51,807h1.22l.15,2.44H989c1.42-1.6,3.2-2.84,4.95-2.84a4.07,4.07,0,0,1,4.33,3.22c1.78-2,3.51-3.22,5.32-3.22,3.12,0,4.69,2,4.69,6.05v10.1h-1.45v-9.91c0-3.34-1.11-4.93-3.51-4.93-1.47,0-3,1-4.69,3V822.7h-1.44v-9.91c0-3.34-1.11-4.93-3.52-4.93-1.41,0-3,1-4.69,3V822.7h-1.44Z"/><path d="M1012.89,818.78c0-3.5,3.14-5.16,10.11-5.94,0-2.42-.61-5-3.69-5a8.57,8.57,0,0,0-5,1.85l-.66-1.08a10.46,10.46,0,0,1,5.83-2.05c3.71,0,5,2.71,5,6.09V822.7h-1.22l-.15-2H1023a9.28,9.28,0,0,1-5.57,2.44C1015,823.1,1012.89,821.74,1012.89,818.78Zm10.11.52v-5.36c-6.43.75-8.63,2.25-8.63,4.77,0,2.26,1.52,3.13,3.32,3.13S1021.06,821,1023,819.3Z"/><path d="M1030,818.35V808.22h-2.44v-1.13l2.48-.14.18-4.56h1.23V807H1036v1.27h-4.54v10.24c0,2,.5,3.37,2.66,3.37a5.56,5.56,0,0,0,2-.5l.38,1.18a9,9,0,0,1-2.56.59C1030.92,823.1,1030,821.17,1030,818.35Z"/><path d="M1039.29,801.86a1.32,1.32,0,0,1,2.63,0,1.32,1.32,0,0,1-2.63,0Zm.56,5.09h1.45V822.7h-1.45Z"/><path d="M1046,814.85c0-5.26,3.27-8.3,7-8.3s7,3,7,8.3-3.27,8.25-7,8.25S1046,820.06,1046,814.85Zm12.56,0c0-4.14-2.35-7-5.52-7s-5.52,2.88-5.52,7,2.36,7,5.52,7S1058.55,819,1058.55,814.85Z"/><path d="M1064.77,807H1066l.15,2.44h.07c1.6-1.6,3.24-2.84,5.4-2.84,3.23,0,4.74,2,4.74,6.05v10.1h-1.45v-9.91c0-3.34-1.05-4.93-3.57-4.93-1.86,0-3.22,1-5.12,3V822.7h-1.44Z"/><path d="M1089.29,801.08h2.13l4.49,12.69c.57,1.59,1.13,3.2,1.69,4.8h.14c.56-1.6,1.07-3.21,1.63-4.8l4.48-12.69H1106V822.7h-1.45V808.49c0-1.75.11-4,.19-5.84h-.13l-1.67,4.82-4.64,12.87H1097l-4.67-12.87-1.7-4.82h-.13c.09,1.81.19,4.09.19,5.84V822.7h-1.38Z"/><path d="M1111,818.78c0-3.5,3.14-5.16,10.11-5.94,0-2.42-.61-5-3.7-5a8.57,8.57,0,0,0-5,1.85l-.67-1.08a10.49,10.49,0,0,1,5.83-2.05c3.72,0,5,2.71,5,6.09V822.7h-1.22l-.16-2h-.07a9.25,9.25,0,0,1-5.56,2.44C1113.1,823.1,1111,821.74,1111,818.78Zm10.11.52v-5.36c-6.44.75-8.64,2.25-8.64,4.77,0,2.26,1.52,3.13,3.32,3.13S1119.21,821,1121.15,819.3Z"/><path d="M1128.18,807h1.22l.16,2.44h.07c1.6-1.6,3.23-2.84,5.39-2.84,3.24,0,4.74,2,4.74,6.05v10.1h-1.44v-9.91c0-3.34-1-4.93-3.57-4.93-1.87,0-3.22,1-5.12,3V822.7h-1.45Z"/><path d="M1144.41,818.78c0-3.5,3.14-5.16,10.11-5.94,0-2.42-.61-5-3.69-5a8.57,8.57,0,0,0-5,1.85l-.66-1.08a10.46,10.46,0,0,1,5.83-2.05c3.71,0,5,2.71,5,6.09V822.7h-1.22l-.15-2h-.08a9.23,9.23,0,0,1-5.56,2.44C1146.47,823.1,1144.41,821.74,1144.41,818.78Zm10.11.52v-5.36c-6.44.75-8.64,2.25-8.64,4.77,0,2.26,1.53,3.13,3.33,3.13S1152.58,821,1154.52,819.3Z"/><path d="M1160.23,825.92a4.93,4.93,0,0,1,2.34-3.79V822a2.82,2.82,0,0,1-1.38-2.52,3.72,3.72,0,0,1,1.71-2.91v-.13a5.81,5.81,0,0,1-2-4.32,5.42,5.42,0,0,1,5.51-5.56,5.59,5.59,0,0,1,2.08.4h5.31v1.23h-3.64a5.21,5.21,0,0,1,1.73,4,5.41,5.41,0,0,1-5.48,5.57,5.35,5.35,0,0,1-2.59-.68,2.88,2.88,0,0,0-1.27,2.28c0,1.14.65,2.05,3,2.05h3.36c3.52,0,5.16,1.13,5.16,3.62,0,2.71-2.89,5.32-7.41,5.32C1162.72,830.29,1160.23,828.58,1160.23,825.92Zm12.38-.8c0-1.73-1.26-2.4-3.63-2.4h-3.36a9.94,9.94,0,0,1-1.94-.25,4.06,4.06,0,0,0-2,3.3c0,2,1.89,3.34,5.19,3.34C1170.35,829.11,1172.61,827.1,1172.61,825.12Zm-2.12-13a4.07,4.07,0,1,0-8.11,0,4.07,4.07,0,1,0,8.11,0Z"/><path d="M1175.76,814.85c0-5.13,3.32-8.3,6.83-8.3,3.72,0,6,2.66,6,7.3a6.75,6.75,0,0,1-.08,1.18h-11.27c0,4,2.37,6.81,5.9,6.81a7,7,0,0,0,4.21-1.39l.6,1.1a8.62,8.62,0,0,1-5,1.55C1179,823.1,1175.76,820,1175.76,814.85Zm11.47-1c0-4-1.81-6-4.62-6-2.65,0-5,2.26-5.38,6Z"/><path d="M1192.83,807h1.22l.16,2.44h.07c1.43-1.6,3.21-2.84,5-2.84a4.05,4.05,0,0,1,4.32,3.22c1.78-2,3.52-3.22,5.32-3.22,3.12,0,4.69,2,4.69,6.05v10.1h-1.44v-9.91c0-3.34-1.11-4.93-3.51-4.93-1.48,0-3,1-4.7,3V822.7h-1.44v-9.91c0-3.34-1.11-4.93-3.51-4.93-1.42,0-3,1-4.69,3V822.7h-1.45Z"/><path d="M1218,814.85c0-5.13,3.32-8.3,6.83-8.3,3.72,0,6,2.66,6,7.3a6.75,6.75,0,0,1-.08,1.18H1219.5c0,4,2.37,6.81,5.9,6.81a7,7,0,0,0,4.21-1.39l.6,1.1a8.61,8.61,0,0,1-4.94,1.55C1221.26,823.1,1218,820,1218,814.85Zm11.48-1c0-4-1.82-6-4.63-6-2.65,0-5,2.26-5.37,6Z"/><path d="M1235.09,807h1.22l.16,2.44h.07c1.6-1.6,3.23-2.84,5.4-2.84,3.23,0,4.73,2,4.73,6.05v10.1h-1.44v-9.91c0-3.34-1-4.93-3.57-4.93-1.87,0-3.22,1-5.12,3V822.7h-1.45Z"/><path d="M1252.81,818.35V808.22h-2.45v-1.13l2.48-.14.18-4.56h1.23V807h4.54v1.27h-4.54v10.24c0,2,.5,3.37,2.66,3.37a5.61,5.61,0,0,0,2-.5l.38,1.18a9,9,0,0,1-2.56.59C1253.69,823.1,1252.81,821.17,1252.81,818.35Z"/><path d="M1269.79,801.08h5.42c4.87,0,7.79,1.59,7.79,6,0,4.24-2.87,6.29-7.66,6.29h-4v9.3h-1.5Zm5.17,11c4.39,0,6.5-1.47,6.5-5s-2.18-4.75-6.63-4.75h-3.54v9.77Z"/><path d="M1287.53,820.59V799.1H1289v21.69c0,.7.29,1,.68,1a2.31,2.31,0,0,0,.59-.07l.24,1.18a3.07,3.07,0,0,1-1,.17C1288.18,823.1,1287.53,822.32,1287.53,820.59Z"/><path d="M1294.14,818.78c0-3.5,3.14-5.16,10.11-5.94,0-2.42-.62-5-3.7-5a8.57,8.57,0,0,0-5,1.85l-.67-1.08a10.49,10.49,0,0,1,5.83-2.05c3.72,0,5,2.71,5,6.09V822.7h-1.22l-.16-2h-.07a9.25,9.25,0,0,1-5.56,2.44C1296.2,823.1,1294.14,821.74,1294.14,818.78Zm10.11.52v-5.36c-6.44.75-8.64,2.25-8.64,4.77,0,2.26,1.52,3.13,3.32,3.13S1302.31,821,1304.25,819.3Z"/><path d="M1311.29,818.35V808.22h-2.45v-1.13l2.48-.14.18-4.56h1.23V807h4.55v1.27h-4.55v10.24c0,2,.51,3.37,2.67,3.37a5.62,5.62,0,0,0,2-.5l.38,1.18a9,9,0,0,1-2.56.59C1312.17,823.1,1311.29,821.17,1311.29,818.35Z"/><path d="M1319.16,807.09l2.19-.14h5v1.27h-7.22Zm2.15-3.65c0-3.12,1.4-4.73,3.88-4.73a5.88,5.88,0,0,1,2.29.53l-.4,1.18a4.13,4.13,0,0,0-1.86-.45c-1.69,0-2.46,1.29-2.46,3.57V822.7h-1.45Z"/><path d="M1328,814.85c0-5.26,3.27-8.3,7-8.3s7,3,7,8.3-3.27,8.25-7,8.25S1328,820.06,1328,814.85Zm12.56,0c0-4.14-2.36-7-5.52-7s-5.53,2.88-5.53,7,2.36,7,5.53,7S1340.59,819,1340.59,814.85Z"/><path d="M1346.8,807H1348l.16,2.94h.07c1.06-1.94,2.6-3.34,4.46-3.34a3.31,3.31,0,0,1,1.55.33l-.32,1.32a3.52,3.52,0,0,0-1.42-.27c-1.41,0-3.08,1.08-4.27,4.06V822.7h-1.45Z"/><path d="M1357.15,807h1.22l.16,2.44h.07c1.43-1.6,3.21-2.84,5-2.84a4.05,4.05,0,0,1,4.32,3.22c1.78-2,3.52-3.22,5.33-3.22,3.12,0,4.68,2,4.68,6.05v10.1h-1.44v-9.91c0-3.34-1.11-4.93-3.51-4.93-1.48,0-3,1-4.7,3V822.7h-1.44v-9.91c0-3.34-1.11-4.93-3.51-4.93-1.42,0-3,1-4.69,3V822.7h-1.45Z"/><path d="M1391,818.35V808.22h-2.45v-1.13l2.48-.14.18-4.56h1.23V807H1397v1.27h-4.54v10.24c0,2,.5,3.37,2.66,3.37a5.67,5.67,0,0,0,2-.5l.38,1.18a9,9,0,0,1-2.56.59C1391.92,823.1,1391,821.17,1391,818.35Z"/><path d="M1400.85,799.1h1.44V806l0,3.47c1.64-1.63,3.27-2.87,5.43-2.87,3.23,0,4.73,2,4.73,6.05v10.1H1411v-9.91c0-3.34-1-4.93-3.57-4.93-1.87,0-3.22,1-5.12,3V822.7h-1.44Z"/><path d="M1417,818.78c0-3.5,3.14-5.16,10.11-5.94,0-2.42-.61-5-3.69-5a8.54,8.54,0,0,0-5,1.85l-.67-1.08a10.46,10.46,0,0,1,5.83-2.05c3.71,0,5,2.71,5,6.09V822.7h-1.22l-.16-2h-.07a9.28,9.28,0,0,1-5.56,2.44C1419,823.1,1417,821.74,1417,818.78Zm10.11.52v-5.36c-6.43.75-8.63,2.25-8.63,4.77,0,2.26,1.52,3.13,3.32,3.13S1425.13,821,1427.06,819.3Z"/><path d="M1434.11,818.35V808.22h-2.45v-1.13l2.48-.14.18-4.56h1.23V807h4.54v1.27h-4.54v10.24c0,2,.5,3.37,2.66,3.37a5.67,5.67,0,0,0,2-.5l.38,1.18a9,9,0,0,1-2.56.59C1435,823.1,1434.11,821.17,1434.11,818.35Z"/><path d="M1450.93,799.1h1.44V806l0,3.47c1.64-1.63,3.27-2.87,5.43-2.87,3.23,0,4.74,2,4.74,6.05v10.1h-1.45v-9.91c0-3.34-1-4.93-3.57-4.93-1.86,0-3.22,1-5.12,3V822.7h-1.44Z"/><path d="M1466.84,814.85c0-5.13,3.32-8.3,6.83-8.3,3.72,0,6,2.66,6,7.3a6.75,6.75,0,0,1-.08,1.18h-11.27c0,4,2.37,6.81,5.9,6.81a7,7,0,0,0,4.21-1.39l.6,1.1a8.62,8.62,0,0,1-5,1.55C1470.08,823.1,1466.84,820,1466.84,814.85Zm11.47-1c0-4-1.81-6-4.62-6-2.65,0-5,2.26-5.38,6Z"/><path d="M1483.91,820.59V799.1h1.45v21.69c0,.7.28,1,.67,1a2.31,2.31,0,0,0,.59-.07l.24,1.18a3.06,3.06,0,0,1-1,.17C1484.57,823.1,1483.91,822.32,1483.91,820.59Z"/><path d="M1491.64,807h1.22l.16,2h.07c1.53-1.23,3.39-2.38,5.32-2.38,4.2,0,6.27,3.17,6.27,8,0,5.35-3.21,8.51-6.9,8.51a8.17,8.17,0,0,1-4.72-1.94l0,2.91v5.76h-1.44Zm11.53,7.65c0-3.87-1.37-6.76-5-6.76-1.55,0-3.2.92-5.1,2.6v9.34a7.58,7.58,0,0,0,4.62,2C1500.88,821.81,1503.17,818.87,1503.17,814.6Z"/><path d="M1507.41,820.92l.83-1.06a7.24,7.24,0,0,0,5,2c2.46,0,3.74-1.45,3.74-3.11,0-2-2-2.85-3.84-3.5-2.36-.84-5-1.81-5-4.5,0-2.27,1.79-4.2,5-4.2a7.3,7.3,0,0,1,4.48,1.64l-.78,1a6,6,0,0,0-3.74-1.43c-2.44,0-3.55,1.41-3.55,2.86,0,1.8,1.85,2.48,3.72,3.19,2.43.93,5.11,1.73,5.11,4.8,0,2.38-1.88,4.45-5.28,4.45A8.92,8.92,0,0,1,1507.41,820.92Z"/><path d="M1528.1,819.84l1-1a8.38,8.38,0,0,0,6.31,2.92c3.28,0,5.35-1.76,5.35-4.34s-1.75-3.56-3.87-4.52l-3.26-1.47c-1.87-.83-4.36-2.17-4.36-5.37s2.67-5.33,6.25-5.33a8.18,8.18,0,0,1,6,2.59l-.87,1a6.84,6.84,0,0,0-5.12-2.22c-2.84,0-4.75,1.53-4.75,3.87,0,2.52,2.15,3.47,3.72,4.17l3.26,1.45c2.41,1.08,4.53,2.42,4.53,5.73s-2.71,5.82-6.88,5.82A9.44,9.44,0,0,1,1528.1,819.84Z"/><path d="M1546.75,801.08h2.13l4.49,12.69c.57,1.59,1.13,3.2,1.7,4.8h.13c.57-1.6,1.07-3.21,1.64-4.8l4.48-12.69h2.13V822.7H1562V808.49c0-1.75.1-4,.19-5.84h-.13l-1.68,4.82-4.64,12.87h-1.3l-4.66-12.87-1.7-4.82H1548c.08,1.81.19,4.09.19,5.84V822.7h-1.39Z"/><path d="M1569.79,801.08h11.77v1.3h-10.27v8.19h8.62v1.3h-8.62v9.53h10.59v1.3h-12.09Z"/><path d="M1584.47,820.92l.83-1.06a7.22,7.22,0,0,0,5,2c2.47,0,3.75-1.45,3.75-3.11,0-2-2-2.85-3.84-3.5-2.36-.84-5-1.81-5-4.5,0-2.27,1.79-4.2,5-4.2a7.3,7.3,0,0,1,4.48,1.64l-.78,1a6,6,0,0,0-3.74-1.43c-2.44,0-3.55,1.41-3.55,2.86,0,1.8,1.85,2.48,3.71,3.19,2.43.93,5.12,1.73,5.12,4.8,0,2.38-1.88,4.45-5.28,4.45A8.92,8.92,0,0,1,1584.47,820.92Z"/><path d="M1598.19,826.8a4.47,4.47,0,0,0,2.51-4.07l-.41-2,1.17,1.54a1.21,1.21,0,0,1-1.13.53,1.3,1.3,0,0,1-1.39-1.37,1.33,1.33,0,0,1,1.4-1.37c1,0,1.67.9,1.67,2.34a6.06,6.06,0,0,1-3.35,5.35Z"/><path d="M1614,801.08h11.77v1.3h-10.27v8.19h8.62v1.3h-8.62v9.53h10.6v1.3H1614Z"/><path d="M1630.6,807h1.22l.16,2.44h.07c1.6-1.6,3.23-2.84,5.39-2.84,3.24,0,4.74,2,4.74,6.05v10.1h-1.44v-9.91c0-3.34-1-4.93-3.57-4.93-1.87,0-3.22,1-5.13,3V822.7h-1.44Z"/><path d="M1648.31,818.35V808.22h-2.44v-1.13l2.48-.14.18-4.56h1.23V807h4.54v1.27h-4.54v10.24c0,2,.5,3.37,2.66,3.37a5.56,5.56,0,0,0,2-.5l.38,1.18a9,9,0,0,1-2.55.59C1649.2,823.1,1648.31,821.17,1648.31,818.35Z"/><path d="M1656.45,814.85c0-5.13,3.32-8.3,6.83-8.3,3.72,0,6,2.66,6,7.3a6.75,6.75,0,0,1-.08,1.18h-11.27c0,4,2.37,6.81,5.9,6.81a7,7,0,0,0,4.21-1.39l.59,1.1a8.56,8.56,0,0,1-4.94,1.55C1659.69,823.1,1656.45,820,1656.45,814.85Zm11.47-1c0-4-1.81-6-4.63-6-2.65,0-5,2.26-5.37,6Z"/><path d="M1673.52,807h1.22l.16,2.94h.07c1.06-1.94,2.59-3.34,4.46-3.34a3.31,3.31,0,0,1,1.55.33l-.32,1.32a3.52,3.52,0,0,0-1.42-.27c-1.41,0-3.08,1.08-4.28,4.06V822.7h-1.44Z"/><path d="M1683.87,807h1.22l.16,2h.07c1.53-1.23,3.4-2.38,5.32-2.38,4.21,0,6.28,3.17,6.28,8,0,5.35-3.22,8.51-6.91,8.51a8.12,8.12,0,0,1-4.71-1.94l0,2.91v5.76h-1.45Zm11.53,7.65c0-3.87-1.37-6.76-5-6.76-1.55,0-3.2.92-5.09,2.6v9.34a7.53,7.53,0,0,0,4.61,2C1693.12,821.81,1695.4,818.87,1695.4,814.6Z"/><path d="M1701.63,807h1.22l.15,2.94h.07c1.07-1.94,2.6-3.34,4.46-3.34a3.37,3.37,0,0,1,1.56.33l-.33,1.32a3.52,3.52,0,0,0-1.42-.27c-1.41,0-3.08,1.08-4.27,4.06V822.7h-1.44Z"/><path d="M1711.42,801.86a1.31,1.31,0,0,1,2.62,0,1.31,1.31,0,0,1-2.62,0ZM1712,807h1.44V822.7H1712Z"/><path d="M1717.49,820.92l.83-1.06a7.22,7.22,0,0,0,5,2c2.47,0,3.75-1.45,3.75-3.11,0-2-2-2.85-3.84-3.5-2.36-.84-5-1.81-5-4.5,0-2.27,1.78-4.2,5-4.2a7.32,7.32,0,0,1,4.48,1.64l-.78,1a6,6,0,0,0-3.74-1.43c-2.44,0-3.55,1.41-3.55,2.86,0,1.8,1.85,2.48,3.71,3.19,2.43.93,5.12,1.73,5.12,4.8,0,2.38-1.89,4.45-5.28,4.45A8.92,8.92,0,0,1,1717.49,820.92Z"/><path d="M1731.34,814.85c0-5.13,3.33-8.3,6.84-8.3,3.71,0,6,2.66,6,7.3a6.77,6.77,0,0,1-.09,1.18h-11.27c.06,4,2.37,6.81,5.9,6.81a7.09,7.09,0,0,0,4.22-1.39l.59,1.1a8.56,8.56,0,0,1-4.94,1.55C1734.59,823.1,1731.34,820,1731.34,814.85Zm11.48-1c0-4-1.82-6-4.63-6-2.65,0-5,2.26-5.37,6Z"/><path d="M99.06,867.52c0-5.27,3.27-8.3,7-8.3s7,3,7,8.3-3.27,8.24-7,8.24S99.06,872.73,99.06,867.52Zm12.56,0c0-4.15-2.35-7-5.52-7s-5.52,2.87-5.52,7,2.35,7,5.52,7S111.62,871.66,111.62,867.52Z"/><path d="M117.83,859.61h1.22l.16,2.94h.07c1.06-1.94,2.6-3.33,4.46-3.33a3.36,3.36,0,0,1,1.56.32l-.33,1.32a3.52,3.52,0,0,0-1.42-.27c-1.41,0-3.08,1.08-4.27,4.06v10.71h-1.45Z"/><path d="M126.54,878.59a4.93,4.93,0,0,1,2.34-3.8v-.14a2.83,2.83,0,0,1-1.39-2.52,3.73,3.73,0,0,1,1.72-2.91v-.13a5.79,5.79,0,0,1-2-4.32,5.41,5.41,0,0,1,5.52-5.55,5.66,5.66,0,0,1,2.08.39h5.3v1.23h-3.64a5.17,5.17,0,0,1,1.73,3.95,5.44,5.44,0,0,1-8.07,4.89,2.94,2.94,0,0,0-1.27,2.29c0,1.13.65,2,3,2h3.36c3.52,0,5.17,1.13,5.17,3.62,0,2.71-2.89,5.32-7.41,5.32C129,883,126.54,881.24,126.54,878.59Zm12.37-.81c0-1.73-1.25-2.4-3.62-2.4h-3.36a9.86,9.86,0,0,1-1.94-.25,4.09,4.09,0,0,0-2.06,3.3c0,2,1.89,3.34,5.2,3.34C136.66,881.77,138.91,879.77,138.91,877.78Zm-2.12-13a4.07,4.07,0,1,0-8.11,0,4.07,4.07,0,1,0,8.11,0Z"/><path d="M142.13,871.44c0-3.5,3.14-5.16,10.11-5.94,0-2.42-.61-5-3.7-5a8.57,8.57,0,0,0-5,1.85l-.67-1.08a10.57,10.57,0,0,1,5.83-2c3.72,0,5,2.71,5,6.08v10.06h-1.22l-.16-2h-.07a9.19,9.19,0,0,1-5.56,2.44C144.19,875.76,142.13,874.4,142.13,871.44Zm10.11.53V866.6c-6.44.75-8.64,2.25-8.64,4.77,0,2.26,1.52,3.13,3.33,3.13S150.3,873.63,152.24,872Z"/><path d="M159.27,859.61h1.22l.16,2.44h.07c1.6-1.6,3.23-2.83,5.4-2.83,3.23,0,4.73,2,4.73,6v10.1h-1.44v-9.91c0-3.34-1-4.93-3.57-4.93-1.87,0-3.22,1-5.12,3v11.88h-1.45Z"/><path d="M176.06,854.52a1.32,1.32,0,0,1,2.63,0,1.32,1.32,0,0,1-2.63,0Zm.56,5.09h1.45v15.75h-1.45Z"/><path d="M182,874.59l9.25-13.71H183v-1.27H193.1v.77l-9.26,13.72h9.57v1.26H182Z"/><path d="M195.22,871.44c0-3.5,3.14-5.16,10.11-5.94,0-2.42-.61-5-3.69-5a8.57,8.57,0,0,0-5,1.85l-.67-1.08a10.54,10.54,0,0,1,5.83-2c3.71,0,5,2.71,5,6.08v10.06h-1.22l-.16-2h-.07a9.22,9.22,0,0,1-5.56,2.44C197.29,875.76,195.22,874.4,195.22,871.44Zm10.11.53V866.6c-6.43.75-8.63,2.25-8.63,4.77,0,2.26,1.52,3.13,3.32,3.13S203.4,873.63,205.33,872Z"/><path d="M212.38,871V860.88h-2.45v-1.13l2.48-.14.18-4.56h1.23v4.56h4.54v1.27h-4.54v10.24c0,2,.5,3.37,2.66,3.37a5.67,5.67,0,0,0,2-.5l.38,1.18a9,9,0,0,1-2.56.59C213.26,875.76,212.38,873.84,212.38,871Z"/><path d="M221.62,854.52a1.32,1.32,0,0,1,2.63,0,1.32,1.32,0,0,1-2.63,0Zm.57,5.09h1.44v15.75h-1.44Z"/><path d="M228.33,867.52c0-5.27,3.27-8.3,7-8.3s7,3,7,8.3-3.27,8.24-7,8.24S228.33,872.73,228.33,867.52Zm12.56,0c0-4.15-2.36-7-5.53-7s-5.52,2.87-5.52,7,2.36,7,5.52,7S240.89,871.66,240.89,867.52Z"/><path d="M247.1,859.61h1.22l.16,2.44h.07c1.6-1.6,3.23-2.83,5.39-2.83,3.24,0,4.74,2,4.74,6v10.1h-1.44v-9.91c0-3.34-1.05-4.93-3.57-4.93-1.87,0-3.22,1-5.13,3v11.88H247.1Z"/><path d="M262.5,873.58l.83-1.06a7.22,7.22,0,0,0,5,2c2.47,0,3.75-1.45,3.75-3.11,0-2-2-2.84-3.84-3.5-2.36-.84-5-1.81-5-4.5,0-2.27,1.79-4.19,5-4.19a7.35,7.35,0,0,1,4.48,1.63l-.78,1a6,6,0,0,0-3.74-1.43c-2.44,0-3.55,1.41-3.55,2.86,0,1.8,1.85,2.48,3.71,3.19,2.43.93,5.12,1.73,5.12,4.81,0,2.37-1.89,4.44-5.28,4.44A8.92,8.92,0,0,1,262.5,873.58Z"/><path d="M284.2,859.61h1.22l.16,2.44h.07c1.42-1.6,3.2-2.83,5-2.83a4.05,4.05,0,0,1,4.33,3.21c1.78-2,3.51-3.21,5.32-3.21,3.12,0,4.69,2,4.69,6v10.1H303.5v-9.91c0-3.34-1.12-4.93-3.52-4.93-1.47,0-3,1-4.69,3v11.88h-1.44v-9.91c0-3.34-1.11-4.93-3.52-4.93-1.41,0-3,1-4.69,3v11.88H284.2Z"/><path d="M309.58,871.44c0-3.5,3.14-5.16,10.11-5.94.05-2.42-.61-5-3.69-5a8.6,8.6,0,0,0-5,1.85l-.66-1.08a10.54,10.54,0,0,1,5.83-2c3.71,0,5,2.71,5,6.08v10.06h-1.22l-.16-2h-.07a9.22,9.22,0,0,1-5.57,2.44C311.64,875.76,309.58,874.4,309.58,871.44Zm10.11.53V866.6c-6.43.75-8.63,2.25-8.63,4.77,0,2.26,1.52,3.13,3.32,3.13S317.75,873.63,319.69,872Z"/><path d="M326.73,859.61H328l.16,2.44h.07c1.6-1.6,3.23-2.83,5.39-2.83,3.24,0,4.74,2,4.74,6v10.1h-1.44v-9.91c0-3.34-1.06-4.93-3.58-4.93-1.86,0-3.21,1-5.12,3v11.88h-1.44Z"/><path d="M343,871.44c0-3.5,3.14-5.16,10.12-5.94,0-2.42-.62-5-3.7-5a8.57,8.57,0,0,0-5,1.85l-.67-1.08a10.54,10.54,0,0,1,5.83-2c3.71,0,5,2.71,5,6.08v10.06h-1.22l-.16-2h-.07a9.22,9.22,0,0,1-5.56,2.44C345,875.76,343,874.4,343,871.44Zm10.12.53V866.6c-6.44.75-8.64,2.25-8.64,4.77,0,2.26,1.52,3.13,3.32,3.13S351.13,873.63,353.07,872Z"/><path d="M358.78,878.59a4.93,4.93,0,0,1,2.34-3.8v-.14a2.83,2.83,0,0,1-1.39-2.52,3.73,3.73,0,0,1,1.72-2.91v-.13a5.79,5.79,0,0,1-2-4.32,5.42,5.42,0,0,1,5.52-5.55,5.66,5.66,0,0,1,2.08.39h5.31v1.23h-3.65a5.17,5.17,0,0,1,1.73,3.95,5.44,5.44,0,0,1-8.07,4.89,2.94,2.94,0,0,0-1.27,2.29c0,1.13.65,2,3,2h3.36c3.52,0,5.17,1.13,5.17,3.62,0,2.71-2.89,5.32-7.41,5.32C361.26,883,358.78,881.24,358.78,878.59Zm12.37-.81c0-1.73-1.25-2.4-3.62-2.4h-3.36a9.86,9.86,0,0,1-1.94-.25,4.09,4.09,0,0,0-2.06,3.3c0,2,1.89,3.34,5.2,3.34C368.9,881.77,371.15,879.77,371.15,877.78Zm-2.12-13a4.07,4.07,0,1,0-8.11,0,4.07,4.07,0,1,0,8.11,0Z"/><path d="M374.3,867.52c0-5.14,3.33-8.3,6.84-8.3,3.71,0,6,2.65,6,7.29a6.77,6.77,0,0,1-.09,1.18H375.78c.06,4,2.37,6.81,5.91,6.81a7.08,7.08,0,0,0,4.21-1.39l.59,1.1a8.56,8.56,0,0,1-4.94,1.55C377.55,875.76,374.3,872.67,374.3,867.52Zm11.48-1c0-4-1.82-6-4.63-6-2.65,0-5,2.26-5.37,6Z"/><path d="M389.93,879.46a4.48,4.48,0,0,0,2.51-4.07l-.41-1.95,1.16,1.54a1.19,1.19,0,0,1-1.13.53,1.29,1.29,0,0,1-1.38-1.37,1.33,1.33,0,0,1,1.4-1.37c1,0,1.66.9,1.66,2.34a6.06,6.06,0,0,1-3.35,5.35Z"/><path d="M403.94,871.44c0-3.5,3.14-5.16,10.11-5.94,0-2.42-.62-5-3.7-5a8.57,8.57,0,0,0-5,1.85l-.67-1.08a10.57,10.57,0,0,1,5.83-2c3.72,0,5,2.71,5,6.08v10.06h-1.22l-.16-2H414a9.19,9.19,0,0,1-5.56,2.44C406,875.76,403.94,874.4,403.94,871.44Zm10.11.53V866.6c-6.44.75-8.64,2.25-8.64,4.77,0,2.26,1.52,3.13,3.32,3.13S412.11,873.63,414.05,872Z"/><path d="M420.83,869.71v-10.1h1.45v9.91c0,3.34,1.05,4.93,3.57,4.93,1.86,0,3.21-1,5-3.21V859.61h1.44v15.75h-1.22l-.16-2.63h-.07c-1.54,1.81-3.16,3-5.32,3C422.33,875.76,420.83,873.78,420.83,869.71Z"/><path d="M438.72,871V860.88h-2.44v-1.13l2.48-.14.18-4.56h1.23v4.56h4.54v1.27h-4.54v10.24c0,2,.5,3.37,2.66,3.37a5.56,5.56,0,0,0,2-.5l.38,1.18a9,9,0,0,1-2.56.59C439.6,875.76,438.72,873.84,438.72,871Z"/><path d="M446.86,867.52c0-5.27,3.27-8.3,7-8.3s7,3,7,8.3-3.27,8.24-7,8.24S446.86,872.73,446.86,867.52Zm12.56,0c0-4.15-2.36-7-5.53-7s-5.52,2.87-5.52,7,2.36,7,5.52,7S459.42,871.66,459.42,867.52Z"/><path d="M465.63,859.61h1.22l.15,2.44h.08c1.42-1.6,3.2-2.83,4.95-2.83a4.06,4.06,0,0,1,4.33,3.21c1.78-2,3.51-3.21,5.32-3.21,3.12,0,4.69,2,4.69,6v10.1h-1.45v-9.91c0-3.34-1.11-4.93-3.51-4.93-1.47,0-3,1-4.69,3v11.88h-1.44v-9.91c0-3.34-1.11-4.93-3.52-4.93-1.41,0-3,1-4.69,3v11.88h-1.44Z"/><path d="M491,871.44c0-3.5,3.14-5.16,10.11-5.94.05-2.42-.61-5-3.69-5a8.57,8.57,0,0,0-5,1.85l-.66-1.08a10.54,10.54,0,0,1,5.83-2c3.71,0,5,2.71,5,6.08v10.06h-1.22l-.15-2h-.07a9.22,9.22,0,0,1-5.57,2.44C493.07,875.76,491,874.4,491,871.44Zm10.11.53V866.6c-6.43.75-8.63,2.25-8.63,4.77,0,2.26,1.52,3.13,3.32,3.13S499.18,873.63,501.12,872Z"/><path d="M508.16,871V860.88h-2.45v-1.13l2.49-.14.18-4.56h1.23v4.56h4.54v1.27h-4.54v10.24c0,2,.5,3.37,2.66,3.37a5.56,5.56,0,0,0,2-.5l.38,1.18a9,9,0,0,1-2.56.59C509,875.76,508.16,873.84,508.16,871Z"/><path d="M516.29,867.52c0-5.14,3.33-8.3,6.84-8.3,3.71,0,6,2.65,6,7.29a6.75,6.75,0,0,1-.08,1.18H517.78c.05,4,2.37,6.81,5.9,6.81a7.08,7.08,0,0,0,4.21-1.39l.59,1.1a8.56,8.56,0,0,1-4.94,1.55C519.54,875.76,516.29,872.67,516.29,867.52Zm11.48-1c0-4-1.81-6-4.63-6-2.65,0-5,2.26-5.37,6Z"/><path d="M531.92,879.46a4.48,4.48,0,0,0,2.51-4.07l-.41-1.95,1.16,1.54a1.19,1.19,0,0,1-1.13.53,1.29,1.29,0,0,1-1.38-1.37,1.33,1.33,0,0,1,1.4-1.37c1,0,1.66.9,1.66,2.34a6,6,0,0,1-3.35,5.35Z"/><path d="M545.93,871.44c0-3.5,3.14-5.16,10.11-5.94,0-2.42-.61-5-3.7-5a8.57,8.57,0,0,0-5,1.85l-.67-1.08a10.57,10.57,0,0,1,5.83-2c3.72,0,5,2.71,5,6.08v10.06h-1.22l-.16-2H556a9.19,9.19,0,0,1-5.56,2.44C548,875.76,545.93,874.4,545.93,871.44ZM556,872V866.6c-6.44.75-8.64,2.25-8.64,4.77,0,2.26,1.52,3.13,3.33,3.13S554.1,873.63,556,872Z"/><path d="M563.07,859.61h1.22l.16,2.44h.07c1.6-1.6,3.23-2.83,5.4-2.83,3.23,0,4.73,2,4.73,6v10.1h-1.44v-9.91c0-3.34-1.05-4.93-3.57-4.93-1.87,0-3.22,1-5.12,3v11.88h-1.45Z"/><path d="M579.12,867.52c0-5.09,3.21-8.3,7-8.3a7.16,7.16,0,0,1,4.72,1.93l-.07-2.89v-6.5h1.44v23.6h-1.22l-.16-2h-.07a7.34,7.34,0,0,1-5.11,2.44C581.67,875.76,579.12,872.83,579.12,867.52Zm11.6,4.35v-9.34a6.55,6.55,0,0,0-4.57-2c-3.12,0-5.52,3.06-5.52,7,0,4.19,1.86,7,5.18,7C587.54,874.47,589.07,873.56,590.72,871.87Z"/><path d="M603.38,867.52c0-5.27,3.27-8.3,7-8.3s7,3,7,8.3-3.27,8.24-7,8.24S603.38,872.73,603.38,867.52Zm12.56,0c0-4.15-2.35-7-5.52-7s-5.52,2.87-5.52,7,2.35,7,5.52,7S615.94,871.66,615.94,867.52Z"/><path d="M622.16,859.61h1.22l.15,2h.07c1.54-1.23,3.4-2.37,5.32-2.37,4.21,0,6.28,3.16,6.28,8,0,5.35-3.21,8.51-6.91,8.51a8.12,8.12,0,0,1-4.71-1.94l0,2.91v5.77h-1.44Zm11.52,7.65c0-3.87-1.37-6.76-5-6.76-1.56,0-3.21.92-5.1,2.6v9.34a7.58,7.58,0,0,0,4.61,2C631.4,874.47,633.68,871.53,633.68,867.26Z"/><path d="M639.88,871V860.88h-2.44v-1.13l2.48-.14.18-4.56h1.23v4.56h4.54v1.27h-4.54v10.24c0,2,.5,3.37,2.66,3.37a5.56,5.56,0,0,0,2-.5l.38,1.18a9,9,0,0,1-2.56.59C640.76,875.76,639.88,873.84,639.88,871Z"/><path d="M649.13,854.52a1.32,1.32,0,0,1,2.63,0,1.32,1.32,0,0,1-2.63,0Zm.56,5.09h1.45v15.75h-1.45Z"/><path d="M657.15,859.61h1.22l.16,2.44h.07c1.43-1.6,3.21-2.83,5-2.83a4,4,0,0,1,4.32,3.21c1.78-2,3.52-3.21,5.32-3.21,3.12,0,4.69,2,4.69,6v10.1h-1.44v-9.91c0-3.34-1.11-4.93-3.51-4.93-1.48,0-3,1-4.7,3v11.88H666.8v-9.91c0-3.34-1.11-4.93-3.51-4.93-1.42,0-3,1-4.69,3v11.88h-1.45Z"/><path d="M683.1,854.52a1.31,1.31,0,0,1,2.62,0,1.31,1.31,0,0,1-2.62,0Zm.56,5.09h1.44v15.75h-1.44Z"/><path d="M689,874.59l9.26-13.71H690v-1.27h10.11v.77l-9.25,13.72h9.57v1.26H689Z"/><path d="M702.65,867.52c0-5.14,3.32-8.3,6.84-8.3,3.71,0,6,2.65,6,7.29a6.77,6.77,0,0,1-.09,1.18H704.13c.06,4,2.37,6.81,5.9,6.81a7.09,7.09,0,0,0,4.22-1.39l.59,1.1a8.56,8.56,0,0,1-4.94,1.55C705.9,875.76,702.65,872.67,702.65,867.52Zm11.48-1c0-4-1.82-6-4.63-6-2.65,0-5,2.26-5.37,6Z"/><path d="M727.69,873.77h-.07l-.17,1.59h-1.2v-23.6h1.45v6.85l-.08,3.07a8.93,8.93,0,0,1,5.4-2.46c4.2,0,6.28,3.16,6.28,8,0,5.35-3.22,8.51-6.91,8.51A7.92,7.92,0,0,1,727.69,873.77Zm10.09-6.51c0-3.87-1.37-6.76-5-6.76-1.55,0-3.26.92-5.09,2.6v9.34a7.42,7.42,0,0,0,4.61,2C735.5,874.47,737.78,871.53,737.78,867.26Z"/><path d="M743.7,869.71v-10.1h1.44v9.91c0,3.34,1.05,4.93,3.57,4.93,1.87,0,3.22-1,5.06-3.21V859.61h1.44v15.75H754l-.16-2.63h-.07c-1.54,1.81-3.16,3-5.32,3C745.2,875.76,743.7,873.78,743.7,869.71Z"/><path d="M759.27,873.58l.84-1.06a7.2,7.2,0,0,0,5,2c2.47,0,3.75-1.45,3.75-3.11,0-2-2-2.84-3.84-3.5-2.37-.84-5-1.81-5-4.5,0-2.27,1.79-4.19,5.06-4.19a7.34,7.34,0,0,1,4.47,1.63l-.77,1a6,6,0,0,0-3.74-1.43c-2.45,0-3.55,1.41-3.55,2.86,0,1.8,1.84,2.48,3.71,3.19,2.43.93,5.12,1.73,5.12,4.81,0,2.37-1.89,4.44-5.28,4.44A9,9,0,0,1,759.27,873.58Z"/><path d="M773.89,854.52a1.31,1.31,0,0,1,2.62,0,1.31,1.31,0,0,1-2.62,0Zm.56,5.09h1.44v15.75h-1.44Z"/><path d="M781.91,859.61h1.22l.16,2.44h.07c1.6-1.6,3.23-2.83,5.39-2.83,3.24,0,4.74,2,4.74,6v10.1H792v-9.91c0-3.34-1-4.93-3.57-4.93-1.86,0-3.21,1-5.12,3v11.88h-1.44Z"/><path d="M797.94,867.52c0-5.14,3.32-8.3,6.83-8.3,3.72,0,6,2.65,6,7.29a6.75,6.75,0,0,1-.08,1.18H799.42c.05,4,2.37,6.81,5.9,6.81a7,7,0,0,0,4.21-1.39l.59,1.1a8.56,8.56,0,0,1-4.94,1.55C801.18,875.76,797.94,872.67,797.94,867.52Zm11.47-1c0-4-1.81-6-4.62-6-2.66,0-5,2.26-5.38,6Z"/><path d="M813.06,873.58l.84-1.06a7.2,7.2,0,0,0,5,2c2.46,0,3.74-1.45,3.74-3.11,0-2-2-2.84-3.83-3.5-2.37-.84-5-1.81-5-4.5,0-2.27,1.79-4.19,5.05-4.19a7.35,7.35,0,0,1,4.48,1.63l-.78,1a6,6,0,0,0-3.74-1.43c-2.44,0-3.55,1.41-3.55,2.86,0,1.8,1.85,2.48,3.72,3.19,2.43.93,5.12,1.73,5.12,4.81,0,2.37-1.89,4.44-5.29,4.44A8.92,8.92,0,0,1,813.06,873.58Z"/><path d="M826.28,873.58l.84-1.06a7.2,7.2,0,0,0,5,2c2.47,0,3.75-1.45,3.75-3.11,0-2-2-2.84-3.84-3.5-2.36-.84-5-1.81-5-4.5,0-2.27,1.78-4.19,5.05-4.19a7.37,7.37,0,0,1,4.48,1.63l-.78,1a6,6,0,0,0-3.74-1.43c-2.45,0-3.55,1.41-3.55,2.86,0,1.8,1.84,2.48,3.71,3.19,2.43.93,5.12,1.73,5.12,4.81,0,2.37-1.89,4.44-5.28,4.44A9,9,0,0,1,826.28,873.58Z"/><path d="M848,859.61h1.22l.15,2h.08a9,9,0,0,1,5.32-2.37c4.2,0,6.27,3.16,6.27,8,0,5.35-3.21,8.51-6.91,8.51a8.12,8.12,0,0,1-4.71-1.94l0,2.91v5.77H848Zm11.52,7.65c0-3.87-1.37-6.76-5-6.76-1.56,0-3.21.92-5.1,2.6v9.34a7.58,7.58,0,0,0,4.61,2C857.23,874.47,859.51,871.53,859.51,867.26Z"/><path d="M865.74,859.61H867l.16,2.94h.07c1.06-1.94,2.59-3.33,4.46-3.33a3.3,3.3,0,0,1,1.55.32l-.33,1.32a3.44,3.44,0,0,0-1.41-.27c-1.41,0-3.08,1.08-4.28,4.06v10.71h-1.44Z"/><path d="M874.45,867.52c0-5.27,3.27-8.3,7-8.3s7,3,7,8.3-3.27,8.24-7,8.24S874.45,872.73,874.45,867.52Zm12.56,0c0-4.15-2.36-7-5.53-7s-5.52,2.87-5.52,7,2.36,7,5.52,7S887,871.66,887,867.52Z"/><path d="M891.9,867.52c0-5.27,3.35-8.3,7.16-8.3a6.41,6.41,0,0,1,4.59,1.94l-.85,1a5.31,5.31,0,0,0-3.71-1.67c-3.2,0-5.68,2.87-5.68,7s2.26,7,5.66,7a6.25,6.25,0,0,0,4.2-1.82l.74,1a7.39,7.39,0,0,1-5,2.08C895,875.76,891.9,872.73,891.9,867.52Z"/><path d="M906,867.52c0-5.14,3.33-8.3,6.84-8.3,3.71,0,6,2.65,6,7.29a7.89,7.89,0,0,1-.08,1.18H907.46c.06,4,2.37,6.81,5.91,6.81a7.08,7.08,0,0,0,4.21-1.39l.59,1.1a8.56,8.56,0,0,1-4.94,1.55C909.23,875.76,906,872.67,906,867.52Zm11.48-1c0-4-1.82-6-4.63-6-2.65,0-5,2.26-5.37,6Z"/><path d="M921.11,873.58l.83-1.06a7.22,7.22,0,0,0,5,2c2.47,0,3.75-1.45,3.75-3.11,0-2-2-2.84-3.84-3.5-2.36-.84-5-1.81-5-4.5,0-2.27,1.79-4.19,5-4.19a7.35,7.35,0,0,1,4.48,1.63l-.78,1a6,6,0,0,0-3.74-1.43c-2.44,0-3.55,1.41-3.55,2.86,0,1.8,1.85,2.48,3.71,3.19,2.43.93,5.12,1.73,5.12,4.81,0,2.37-1.88,4.44-5.28,4.44A8.92,8.92,0,0,1,921.11,873.58Z"/><path d="M934.33,873.58l.84-1.06a7.2,7.2,0,0,0,5,2c2.46,0,3.74-1.45,3.74-3.11,0-2-2-2.84-3.83-3.5-2.37-.84-5-1.81-5-4.5,0-2.27,1.79-4.19,5.05-4.19a7.35,7.35,0,0,1,4.48,1.63l-.77,1a6,6,0,0,0-3.74-1.43c-2.45,0-3.56,1.41-3.56,2.86,0,1.8,1.85,2.48,3.72,3.19,2.43.93,5.12,1.73,5.12,4.81,0,2.37-1.89,4.44-5.28,4.44A8.93,8.93,0,0,1,934.33,873.58Z"/><path d="M956,859.61h1.22l.16,2.44h.07c1.43-1.6,3.21-2.83,5-2.83a4,4,0,0,1,4.32,3.21c1.78-2,3.52-3.21,5.32-3.21,3.12,0,4.69,2,4.69,6v10.1h-1.44v-9.91c0-3.34-1.11-4.93-3.51-4.93-1.48,0-3,1-4.7,3v11.88h-1.44v-9.91c0-3.34-1.11-4.93-3.51-4.93-1.42,0-3,1-4.69,3v11.88H956Z"/><path d="M981.42,871.44c0-3.5,3.14-5.16,10.11-5.94,0-2.42-.62-5-3.7-5a8.57,8.57,0,0,0-5,1.85l-.67-1.08a10.57,10.57,0,0,1,5.83-2c3.72,0,5,2.71,5,6.08v10.06h-1.22l-.16-2h-.07a9.19,9.19,0,0,1-5.56,2.44C983.48,875.76,981.42,874.4,981.42,871.44Zm10.11.53V866.6c-6.44.75-8.64,2.25-8.64,4.77,0,2.26,1.52,3.13,3.32,3.13S989.59,873.63,991.53,872Z"/><path d="M998.56,859.61h1.22l.16,2.44h.07c1.6-1.6,3.23-2.83,5.39-2.83,3.24,0,4.74,2,4.74,6v10.1h-1.44v-9.91c0-3.34-1.05-4.93-3.57-4.93-1.87,0-3.22,1-5.13,3v11.88h-1.44Z"/><path d="M1014.79,871.44c0-3.5,3.14-5.16,10.11-5.94,0-2.42-.61-5-3.69-5a8.57,8.57,0,0,0-5,1.85l-.66-1.08a10.54,10.54,0,0,1,5.82-2c3.72,0,5,2.71,5,6.08v10.06h-1.22l-.15-2h-.08a9.19,9.19,0,0,1-5.56,2.44C1016.85,875.76,1014.79,874.4,1014.79,871.44Zm10.11.53V866.6c-6.44.75-8.64,2.25-8.64,4.77,0,2.26,1.53,3.13,3.33,3.13S1023,873.63,1024.9,872Z"/><path d="M1030.61,878.59a4.93,4.93,0,0,1,2.34-3.8v-.14a2.82,2.82,0,0,1-1.38-2.52,3.72,3.72,0,0,1,1.71-2.91v-.13a5.79,5.79,0,0,1-2-4.32,5.42,5.42,0,0,1,5.52-5.55,5.61,5.61,0,0,1,2.08.39h5.31v1.23h-3.64a5.21,5.21,0,0,1,1.73,3.95,5.41,5.41,0,0,1-5.48,5.57,5.35,5.35,0,0,1-2.59-.68A2.92,2.92,0,0,0,1033,872c0,1.13.65,2,3,2h3.35c3.53,0,5.17,1.13,5.17,3.62,0,2.71-2.89,5.32-7.41,5.32C1033.1,883,1030.61,881.24,1030.61,878.59Zm12.38-.81c0-1.73-1.26-2.4-3.63-2.4H1036a9.94,9.94,0,0,1-1.94-.25,4.07,4.07,0,0,0-2,3.3c0,2,1.89,3.34,5.19,3.34C1040.73,881.77,1043,879.77,1043,877.78Zm-2.12-13a4.07,4.07,0,1,0-8.11,0,4.07,4.07,0,1,0,8.11,0Z"/><path d="M1046.14,867.52c0-5.14,3.32-8.3,6.83-8.3,3.72,0,6,2.65,6,7.29a6.75,6.75,0,0,1-.08,1.18h-11.27c.05,4,2.37,6.81,5.9,6.81a7.06,7.06,0,0,0,4.21-1.39l.59,1.1a8.56,8.56,0,0,1-4.94,1.55C1049.38,875.76,1046.14,872.67,1046.14,867.52Zm11.47-1c0-4-1.81-6-4.63-6-2.65,0-5,2.26-5.37,6Z"/><path d="M1063.21,859.61h1.22l.16,2.44h.07c1.42-1.6,3.21-2.83,5-2.83a4.05,4.05,0,0,1,4.32,3.21c1.78-2,3.52-3.21,5.32-3.21,3.12,0,4.69,2,4.69,6v10.1h-1.44v-9.91c0-3.34-1.11-4.93-3.51-4.93-1.48,0-3,1-4.7,3v11.88h-1.44v-9.91c0-3.34-1.11-4.93-3.51-4.93-1.42,0-3,1-4.7,3v11.88h-1.44Z"/><path d="M1088.4,867.52c0-5.14,3.32-8.3,6.83-8.3,3.72,0,6,2.65,6,7.29a6.75,6.75,0,0,1-.08,1.18h-11.27c0,4,2.37,6.81,5.9,6.81a7,7,0,0,0,4.21-1.39l.6,1.1a8.62,8.62,0,0,1-4.95,1.55C1091.64,875.76,1088.4,872.67,1088.4,867.52Zm11.47-1c0-4-1.81-6-4.62-6-2.65,0-5,2.26-5.38,6Z"/><path d="M1105.47,859.61h1.22l.16,2.44h.07c1.6-1.6,3.23-2.83,5.39-2.83,3.24,0,4.74,2,4.74,6v10.1h-1.44v-9.91c0-3.34-1-4.93-3.57-4.93-1.87,0-3.22,1-5.12,3v11.88h-1.45Z"/><path d="M1123.19,871V860.88h-2.45v-1.13l2.48-.14.18-4.56h1.23v4.56h4.54v1.27h-4.54v10.24c0,2,.5,3.37,2.66,3.37a5.67,5.67,0,0,0,2-.5l.38,1.18a9,9,0,0,1-2.56.59C1124.07,875.76,1123.19,873.84,1123.19,871Z"/><path d="M1132.77,874.29a1.39,1.39,0,1,1,1.38,1.47A1.4,1.4,0,0,1,1132.77,874.29Z"/><path class="cls-10" d="M960.29,1201.06H910.52L0,1171V930.44c31.74-9.85,68.78-3.14,93.89,18.94,7.81,6.86,14.41,14.88,20.9,23,4.42,5.53,8.79,11.11,13.44,16.41a187,187,0,0,0,130.91,62.64c38,1.61,74.47-8.35,110.73-20.71,49.32-16.79,98.22-38,149.88-40.44,75.61-3.57,146.59,33.21,213.31,69C792.21,1091,901.14,1169.35,960.29,1201.06Z"/><path class="cls-12" d="M960.3,1201.06H0V960.53c31.74-9.85,68.78-3.13,93.89,18.94,7.81,6.86,14.4,14.89,20.9,23,4.42,5.53,8.79,11.11,13.43,16.41a187.11,187.11,0,0,0,130.91,62.64c38,1.6,74.48-8.35,110.73-20.71,49.33-16.8,98.23-38,149.89-40.44,75.61-3.57,146.58,33.2,213.31,69C792.22,1121.06,901.14,1169.35,960.3,1201.06Z"/></svg>
