<svg id="Layer_1" data-name="Layer 1" xmlns="http://www.w3.org/2000/svg" viewBox="0 0 70.77 60"><defs><style>.cls-1{fill:#58aa6a;}</style></defs><title>Bar Chart &amp;amp; Square Root</title><path class="cls-1" d="M27.92,60a4.48,4.48,0,0,1-3.77-2L9.59,35.44H1.11A1.11,1.11,0,0,1,0,34.33V27.55a1.11,1.11,0,0,1,1.11-1.1H12a4.46,4.46,0,0,1,3.77,2.05L26.1,44.41l10.42-41A4.49,4.49,0,0,1,40.88,0H69.66a1.11,1.11,0,0,1,1.11,1.11V7.9A1.11,1.11,0,0,1,69.66,9L44.38,9l-12,47.31A4.78,4.78,0,0,1,28.61,60,5.34,5.34,0,0,1,27.92,60Z"/><rect class="cls-1" x="49.05" y="36.69" width="23.32" height="4.85" rx="0.92" ry="0.92" transform="translate(-9.87 54.39) rotate(-45)"/><rect class="cls-1" x="58.29" y="27.45" width="4.85" height="23.32" rx="0.92" ry="0.92" transform="translate(-9.87 54.39) rotate(-45)"/></svg>