<svg id="Layer_1" data-name="Layer 1" xmlns="http://www.w3.org/2000/svg" viewBox="0 0 24 20.67"><defs><style>.cls-1{fill:#ffecd2;}.cls-2{fill:#fff;}</style></defs><title>Alert</title><polygon class="cls-1" points="12 0 0.03 20.67 23.97 20.67 12 0"/><path class="cls-2" d="M12,14.81c.2,0,.45-.1.47-.56l.31-7a.89.89,0,0,0-.19-.64A.7.7,0,0,0,12,6.32a.76.76,0,0,0-.62.25.9.9,0,0,0-.2.64l.32,7C11.54,14.71,11.8,14.81,12,14.81Z"/><path class="cls-2" d="M12.67,16.1a.83.83,0,0,0-.66-.26.85.85,0,0,0-.67.26,1,1,0,0,0,0,1.32.86.86,0,0,0,.67.27.84.84,0,0,0,.66-.27.93.93,0,0,0,.25-.66A1,1,0,0,0,12.67,16.1Z"/></svg>