<svg height="512pt" viewBox="0 0 512 512" width="512pt" xmlns="http://www.w3.org/2000/svg"><path d="m192 224h-160c-17.679688 0-32-14.320312-32-32v-160c0-17.679688 14.320312-32 32-32h160c17.679688 0 32 14.320312 32 32v160c0 17.679688-14.320312 32-32 32zm0 0" fill="#48c8ef"/><path d="m480 512h-160c-17.679688 0-32-14.320312-32-32v-160c0-17.679688 14.320312-32 32-32h160c17.679688 0 32 14.320312 32 32v160c0 17.679688-14.320312 32-32 32zm0 0" fill="#48c8ef"/><path d="m384 416h-256c-17.679688 0-32-14.320312-32-32v-256c0-17.679688 14.320312-32 32-32h256c17.679688 0 32 14.320312 32 32v256c0 17.679688-14.320312 32-32 32zm0 0" fill="#e76e54"/><g fill="#fff"><path d="m144 144h32v32h-32zm0 0"/><path d="m144 208h32v32h-32zm0 0"/><path d="m208 144h32v32h-32zm0 0"/><path d="m336 336h32v32h-32zm0 0"/><path d="m336 272h32v32h-32zm0 0"/><path d="m272 336h32v32h-32zm0 0"/></g></svg>