<svg id="Capa_1" data-name="Capa 1" xmlns="http://www.w3.org/2000/svg" viewBox="0 0 407.01 407.01"><defs><style>.cls-1{fill:#f5f5f5;}</style></defs><title>clipboard1</title><rect class="cls-1" x="99.01" y="145.78" width="47.02" height="41.8"/><path class="cls-1" d="M271.42,30.84H241.64a8.37,8.37,0,0,1-7.84-6.26A30.29,30.29,0,0,0,203,0,30.82,30.82,0,0,0,172.16,25.1a7.83,7.83,0,0,1-7.84,5.74H135.58V83.09H271.42Z"/><path class="cls-1" d="M355,383V83.61a21.42,21.42,0,0,0-21.36-21.48q-.81,0-1.62.06H287.1V88.83c0,4.18-2.62,9.93-6.8,9.93H126.18c-4.18,0-6.27-5.75-6.27-9.93V62.19H75A21.43,21.43,0,0,0,52.05,82Q52,82.8,52,83.61V383a23.51,23.51,0,0,0,23,24H332a23.52,23.52,0,0,0,23-24ZM83.34,195.41V138a7.84,7.84,0,0,1,7.84-7.84h62.69a7.84,7.84,0,0,1,7.84,7.84v57.46a7.84,7.84,0,0,1-7.84,7.84H91.18A7.84,7.84,0,0,1,83.34,195.41ZM161.18,314l-40.75,38.14a7.3,7.3,0,0,1-5.22,2.61,8.34,8.34,0,0,1-5.75-2.61L88,330.21a8,8,0,0,1,11.5-11L115.21,336l35.53-33.43A7.83,7.83,0,0,1,161.18,314Zm0-83.59h0l-40.75,38.14a7.3,7.3,0,0,1-5.22,2.61,8.38,8.38,0,0,1-5.75-2.61L88,246.62a8,8,0,0,1,11.5-11l15.67,16.72,35.53-33.43a7.83,7.83,0,0,1,10.44,11.49Zm152,113.89H193.05a7.84,7.84,0,0,1,0-15.67H313.22a7.84,7.84,0,0,1,0,15.67Zm0-83.59H193.05a7.84,7.84,0,0,1,0-15.67H313.22a7.84,7.84,0,0,1,0,15.67Zm0-83.59H193.05a7.84,7.84,0,0,1,0-15.68H313.22a7.84,7.84,0,0,1,0,15.68Z"/></svg>