<svg id="Layer_1" data-name="Layer 1" xmlns="http://www.w3.org/2000/svg" viewBox="0 0 100 100"><defs><style>.cls-1{fill:#413f40;}.cls-2{fill:#fff;}</style></defs><title>Email Template Banner</title><path id="_Path_" data-name="&lt;Path&gt;" class="cls-1" d="M50,100h0A50,50,0,0,1,0,50H0A50,50,0,0,1,50,0h0a50,50,0,0,1,50,50h0A50,50,0,0,1,50,100Z"/><path id="_Path_2" data-name="&lt;Path&gt;" class="cls-2" d="M23.36,66.74a31,31,0,0,0,16.76,4.91c20.29,0,31.76-17.14,31.07-32.52a22.23,22.23,0,0,0,5.45-5.66,21.72,21.72,0,0,1-6.28,1.72,11,11,0,0,0,4.81-6,21.91,21.91,0,0,1-6.94,2.65,10.94,10.94,0,0,0-18.63,10A31,31,0,0,1,27.07,30.35a10.94,10.94,0,0,0,3.38,14.59,10.77,10.77,0,0,1-4.95-1.36,10.93,10.93,0,0,0,8.77,10.85,10.91,10.91,0,0,1-4.94.19,11,11,0,0,0,10.21,7.59A22,22,0,0,1,23.36,66.74Z"/></svg>