<svg id="Layer_1" data-name="Layer 1" xmlns="http://www.w3.org/2000/svg" viewBox="0 0 100 100"><defs><style>.cls-1{fill:#413f40;}.cls-2{fill:#fff;}</style></defs><title>Email Template Banner</title><path id="_Path_" data-name="&lt;Path&gt;" class="cls-1" d="M50,100h0A50,50,0,0,1,0,50H0A50,50,0,0,1,50,0h0a50,50,0,0,1,50,50h0A50,50,0,0,1,50,100Z"/><g id="_Group_" data-name="&lt;Group&gt;"><g id="_Group_2" data-name="&lt;Group&gt;"><rect id="_Path_2" data-name="&lt;Path&gt;" class="cls-2" x="27.33" y="38.85" width="10.35" height="33.43"/><path id="_Path_3" data-name="&lt;Path&gt;" class="cls-2" d="M32.45,34.48a6.17,6.17,0,1,0-6.12-6.17A6.15,6.15,0,0,0,32.45,34.48Z"/></g><path id="_Path_4" data-name="&lt;Path&gt;" class="cls-2" d="M54.22,54.74c0-4.7,2.16-7.5,6.3-7.5,3.81,0,5.64,2.68,5.64,7.5V72.28h10.3V51.12c0-9-5.08-13.29-12.17-13.29a11.64,11.64,0,0,0-10.07,5.53V38.85H44.29V72.28h9.93Z"/></g></svg>