<svg id="Layer_1" data-name="Layer 1" xmlns="http://www.w3.org/2000/svg" xmlns:xlink="http://www.w3.org/1999/xlink" viewBox="0 0 36 36"><defs><style>.cls-1{fill:url(#linear-gradient);}.cls-2{fill:#de2c60;}.cls-3{fill:#205e97;}.cls-4{fill:url(#linear-gradient-2);}.cls-5{fill:url(#linear-gradient-3);}.cls-6{fill:url(#linear-gradient-4);}</style><linearGradient id="linear-gradient" x1="9.15" y1="35.93" x2="9.15" y2="13.71" gradientUnits="userSpaceOnUse"><stop offset="0" stop-color="#ee641c"/><stop offset="1" stop-color="#f6c405"/></linearGradient><linearGradient id="linear-gradient-2" x1="3.04" y1="24.73" x2="14.69" y2="24.73" xlink:href="#linear-gradient"/><linearGradient id="linear-gradient-3" x1="17.17" y1="26" x2="32.61" y2="26" gradientUnits="userSpaceOnUse"><stop offset="0" stop-color="#b41f70"/><stop offset="1" stop-color="#e32d5e"/></linearGradient><linearGradient id="linear-gradient-4" x1="5.37" y1="11.09" x2="35.84" y2="11.09" gradientUnits="userSpaceOnUse"><stop offset="0" stop-color="#1f548c"/><stop offset="1" stop-color="#2aa8ec"/></linearGradient></defs><title>Favicon</title><polygon class="cls-1" points="14.35 24.89 3.61 13.9 3.04 13.71 3.95 24.78 14.69 35.75 15.26 35.93 14.35 24.89"/><polygon class="cls-2" points="26.45 28.04 25.91 27.89 28.63 24.34 29.17 24.49 26.45 28.04"/><polygon class="cls-2" points="29.17 24.49 28.63 24.34 25.54 23.41 26.07 23.56 29.17 24.49"/><polygon class="cls-2" points="17.91 31.93 17.37 31.78 25.83 26.87 26.36 27.01 17.91 31.93"/><polygon class="cls-2" points="18.33 35.96 17.79 35.81 17.37 31.78 17.91 31.93 18.33 35.96"/><polygon class="cls-2" points="17.17 24.91 16.64 24.77 31.18 15.89 31.72 16.03 17.17 24.91"/><polygon class="cls-2" points="17.66 29.6 17.13 29.45 16.64 24.77 17.17 24.91 17.66 29.6"/><polygon class="cls-2" points="17.17 24.91 31.72 16.03 32.61 27.02 18.33 35.96 17.91 31.93 26.36 27.01 26.45 28.04 29.17 24.49 26.07 23.56 26.17 24.68 17.66 29.6 17.17 24.91"/><polygon class="cls-3" points="24.17 0.29 23.52 0.76 25.13 2.45 22.12 4.38 19.63 1.79 5.37 10.96 4.72 11.44 15.32 22.61 29.84 13.57 30.5 13.1 27.8 10.3 30.83 8.41 32.46 10.11 33.11 9.64 35.84 0.04 24.17 0.29"/><polygon class="cls-4" points="3.04 13.71 13.78 24.7 14.69 35.75 3.95 24.78 3.04 13.71"/><polygon class="cls-5" points="17.17 24.91 31.72 16.03 32.61 27.02 18.33 35.96 17.91 31.93 26.36 27.01 26.45 28.04 29.17 24.49 26.07 23.56 26.17 24.68 17.66 29.6 17.17 24.91"/><polygon class="cls-6" points="25.82 2.01 24.17 0.29 35.84 0.04 33.11 9.64 31.48 7.94 27.76 10.25 30.5 13.1 15.97 22.13 5.37 10.96 19.63 1.79 22.12 4.38 25.82 2.01"/></svg>